<?xml version="1.0" encoding="UTF-8" standalone="no"?>
<!-- Created with Inkscape (http://www.inkscape.org/) -->

<svg
   xmlns:dc="http://purl.org/dc/elements/1.1/"
   xmlns:cc="http://creativecommons.org/ns#"
   xmlns:rdf="http://www.w3.org/1999/02/22-rdf-syntax-ns#"
   xmlns:svg="http://www.w3.org/2000/svg"
   xmlns="http://www.w3.org/2000/svg"
   xmlns:xlink="http://www.w3.org/1999/xlink"
   xmlns:sodipodi="http://sodipodi.sourceforge.net/DTD/sodipodi-0.dtd"
   xmlns:inkscape="http://www.inkscape.org/namespaces/inkscape"
   width="150"
   height="150"
   viewBox="0 0 39.687499 39.687501"
   version="1.1"
   id="svg8"
   inkscape:version="0.92.2 (5c3e80d, 2017-08-06)"
   sodipodi:docname="gpicon_filebrowser.svg">
  <defs
     id="defs2">
    <filter
       filterUnits="objectBoundingBox"
       y="0%"
       x="0%"
       height="100%"
       width="100%"
       id="alpha">
      <feColorMatrix
         id="feColorMatrix812"
         values="0 0 0 0 1 0 0 0 0 1 0 0 0 0 1 0 0 0 1 0"
         type="matrix"
         in="SourceGraphic" />
    </filter>
    <mask
       id="mask2">
      <g
         id="g829"
         filter="url(#alpha)">
        <rect
           id="rect827"
           style="fill:rgb(0%,0%,0%);fill-opacity:0.101961"
           y="0"
           x="0"
           height="384"
           width="384" />
      </g>
    </mask>
    <clipPath
       id="clip1">
      <rect
         id="rect832"
         y="0"
         x="0"
         height="384"
         width="384" />
    </clipPath>
    <g
       clip-path="url(#clip1)"
       id="surface13">
      <path
         id="path835"
         d="M 15.75 316.535156 L 15.75 331.519531 C 15.75 344.296875 23.574219 349.464844 33.292969 349.464844 L 350.707031 349.464844 C 360.425781 349.464844 368.25 345.445312 368.25 332.667969 L 368.25 316.535156 C 368.25 329.316406 360.425781 339.601562 350.707031 339.601562 L 33.292969 339.601562 C 23.574219 339.601562 15.75 329.316406 15.75 316.535156 Z M 15.75 316.535156"
         style="fill:rgb(0%,0%,0%)" />
    </g>
    <mask
       id="mask3">
      <g
         id="g840"
         filter="url(#alpha)">
        <rect
           id="rect838"
           style="fill:rgb(0%,0%,0%);fill-opacity:0.501961"
           y="0"
           x="0"
           height="384"
           width="384" />
      </g>
    </mask>
    <clipPath
       id="clip2">
      <rect
         id="rect843"
         y="0"
         x="0"
         height="384"
         width="384" />
    </clipPath>
    <g
       clip-path="url(#clip2)"
       id="surface16">
      <path
         id="path846"
         d="M 33.292969 113.726562 C 23.574219 113.726562 15.75 121.535156 15.75 131.234375 L 15.75 137.222656 C 15.75 127.523438 23.574219 119.714844 33.292969 119.714844 L 350.707031 119.714844 C 360.425781 119.714844 368.25 127.523438 368.25 137.222656 L 368.25 131.234375 C 368.25 121.535156 360.425781 113.726562 350.707031 113.726562 Z M 33.292969 113.726562"
         style="fill:rgb(100%,100%,100%)" />
    </g>
  </defs>
  <sodipodi:namedview
     id="base"
     pagecolor="#ffffff"
     bordercolor="#666666"
     borderopacity="1.0"
     inkscape:pageopacity="0.0"
     inkscape:pageshadow="2"
     inkscape:zoom="5.261926"
     inkscape:cx="35.81477"
     inkscape:cy="82.601694"
     inkscape:document-units="mm"
     inkscape:current-layer="layer1"
     showgrid="false"
     inkscape:window-width="1920"
     inkscape:window-height="1025"
     inkscape:window-x="0"
     inkscape:window-y="27"
     inkscape:window-maximized="1"
     units="px" />
  <metadata
     id="metadata5">
    <rdf:RDF>
      <cc:Work
         rdf:about="">
        <dc:format>image/svg+xml</dc:format>
        <dc:type
           rdf:resource="http://purl.org/dc/dcmitype/StillImage" />
        <dc:title />
      </cc:Work>
    </rdf:RDF>
  </metadata>
  <g
     inkscape:label="Ebene 1"
     inkscape:groupmode="layer"
     id="layer1"
     transform="translate(0,-257.31248)">
    <path
       inkscape:connector-curvature="0"
       style="fill:#da2411;fill-opacity:1;stroke-width:0.08957248"
       d="m 18.417938,263.05171 -10.9449873,0.0171 c -0.898174,-0.12456 -1.6329483,0.84395 -1.6329483,1.89187 v 5.3635 c 0.055283,-0.006 0.110916,-0.01 0.1675985,-0.01 H 18.31122 l 2.967439,-3.53602 z m 0,0"
       id="path851" />
    <path
       inkscape:connector-curvature="0"
       style="fill:#b91c1c;fill-opacity:1;fill-rule:evenodd;stroke-width:0.08957248"
       d="m 21.154447,266.78016 -2.99438,3.53427 H 33.6757 c 0.138207,0 0.272217,0.0178 0.401677,0.05 l 0.0024,-1.87367 c 10e-4,-0.75507 -0.382082,-1.40727 -0.937361,-1.71063 z m 0,0"
       id="path853" />
    <path
       inkscape:connector-curvature="0"
       style="fill:#f5f5f5;stroke-width:0.08957248"
       d="M 5.6279676,270.14508 H 34.059532 c 0.867734,0 1.571368,0.70188 1.571368,1.56822 v 17.97922 c 0,0.86599 -0.703634,1.56822 -1.571368,1.56822 H 5.6279676 c -0.8677334,0 -1.5713672,-0.70223 -1.5713672,-1.56822 V 271.7133 c 0,-0.86634 0.7036338,-1.56822 1.5713672,-1.56822 z m 0,0"
       id="path857" />
    <path
       inkscape:connector-curvature="0"
       style="fill:#ffffff;stroke-width:0.08957248"
       d="m 5.6279676,270.14508 c -0.8705325,0 -1.5713672,0.69944 -1.5713672,1.56822 v 17.97922 c 0,0.86879 0.7008347,1.56822 1.5713672,1.56822 H 19.248932 L 35.4668,271.01351 c -0.256821,-0.51539 -0.789008,-0.86843 -1.407268,-0.86843 z m 0,0"
       id="path859" />
    <use
       height="100%"
       width="100%"
       y="0"
       x="0"
       mask="url(#mask2)"
       xlink:href="#surface13"
       id="use865"
       transform="matrix(0.08957248,0,0,0.08957248,2.6458338,259.95831)" />
    <use
       height="100%"
       width="100%"
       y="0"
       x="0"
       mask="url(#mask3)"
       xlink:href="#surface16"
       id="use867"
       transform="matrix(0.08957248,0,0,0.08957248,2.6458338,259.95831)" />
    <g
       id="g858"
       transform="translate(26.943642,4.4650109)">
      <path
         id="path901"
         d="m -7.9759879,280.71009 c -1.109412,-0.16853 -2.1994631,-0.68535 -2.9425101,-1.39515 -0.254584,-0.2432 -0.271989,-0.26723 -0.263795,-0.36435 0.01523,-0.18039 -0.01256,-0.17747 1.6878441,-0.17739 1.692766,0 1.772481,0.007 2.121745,0.17875 0.145954,0.0718 0.270637,0.17304 0.517244,0.41978 0.44939,0.44962 0.706804,0.56368 1.199795,0.53157 0.294436,-0.0192 0.5215934,-0.1035 0.7537355,-0.2798 0.7289001,-0.55358 0.7289001,-1.6745 0,-2.22809 -0.2494245,-0.18941 -0.4575475,-0.26255 -0.7963625,-0.27983 -0.47839,-0.0243 -0.745242,0.10032 -1.182739,0.55276 -0.195378,0.20205 -0.315126,0.2987 -0.467132,0.37701 -0.371746,0.19152 -0.312103,0.1867 -2.306893,0.1867 h -1.8104731 l -0.160607,-0.0759 c -0.200512,-0.0949 -0.304178,-0.19857 -0.412093,-0.41234 -0.216484,-0.42885 -0.317643,-0.9301 -0.31782,-1.57478 -1.08e-4,-0.66765 0.137862,-1.34253 0.349674,-1.70954 0.09881,-0.17121 0.288033,-0.31689 0.490842,-0.37794 0.20171,-0.0607 3.5357401,-0.057 3.7953571,0.004 0.328224,0.0774 0.518409,0.19756 0.853834,0.53952 0.241008,0.2457 0.347809,0.33216 0.499147,0.40408 0.560988,0.26661 1.1618116,0.16183 1.6010522,-0.27921 0.3159074,-0.3172 0.4304334,-0.62824 0.4037339,-1.0965 -0.013065,-0.22915 -0.028761,-0.28752 -0.1348456,-0.50162 -0.3226598,-0.65115 -1.0622365,-0.95454 -1.7266605,-0.70829 -0.250046,0.0926 -0.371726,0.18189 -0.686227,0.50322 -0.30546,0.31206 -0.508335,0.44041 -0.803847,0.50849 -0.08098,0.0187 -0.741118,0.0304 -1.737462,0.0308 -1.7837851,6.1e-4 -1.7364971,0.006 -1.7368321,-0.18344 -1.05e-4,-0.0788 0.03754,-0.12946 0.243088,-0.32687 0.578706,-0.55577 1.3953011,-1.01678 2.2226551,-1.25481 0.49927,-0.14365 0.868399,-0.196 1.491184,-0.21149 0.66342,-0.0165 1.052592,0.0234 1.621997,0.16673 1.6341711,0.41103 2.9501021,1.49816 3.5172053,2.90565 0.1182737,0.29353 0.248419,0.76333 0.248419,0.89672 0,0.15022 -0.085958,0.28796 -0.216793,0.34739 -0.1125866,0.0512 -0.2429397,0.0541 -2.4113161,0.0542 -2.5230682,1e-4 -2.5242012,9e-5 -2.8909182,-0.17853 -0.145315,-0.0708 -0.261903,-0.16576 -0.497371,-0.40529 -0.319878,-0.32537 -0.48976,-0.43838 -0.77288,-0.51413 -0.195748,-0.0524 -0.518141,-0.0499 -0.731195,0.006 -0.6635701,0.17279 -1.1258831,0.88929 -1.0117751,1.56805 0.138142,0.82172 0.9456581,1.35259 1.7419471,1.14518 0.284093,-0.074 0.44853,-0.18339 0.774869,-0.51547 0.24294,-0.24723 0.346582,-0.33074 0.498979,-0.40206 0.375521,-0.17573 0.371595,-0.17549 2.9029458,-0.176 2.5975422,-6e-4 2.4555859,-0.0125 2.5674154,0.21661 0.050409,0.10326 0.052663,0.13505 0.022229,0.31253 -0.085474,0.49844 -0.391062,1.19999 -0.7243117,1.66283 -0.8065126,1.12015 -2.1367204,1.89961 -3.6065525,2.11332 -0.397972,0.0579 -1.388576,0.0564 -1.777527,-0.003 z"
         style="fill:#e5e5e5;fill-opacity:1;stroke-width:0.02336096"
         inkscape:connector-curvature="0" />
      <path
         inkscape:connector-curvature="0"
         style="fill:#da2411;fill-opacity:1;stroke-width:0.02336096"
         d="m -7.975988,280.18092 c -1.109412,-0.16853 -2.199463,-0.68535 -2.94251,-1.39515 -0.254584,-0.2432 -0.271989,-0.26723 -0.263795,-0.36435 0.01523,-0.18039 -0.01256,-0.17747 1.687844,-0.17739 1.692766,0 1.772481,0.007 2.121745,0.17875 0.145954,0.0718 0.270637,0.17304 0.517244,0.41978 0.44939,0.44962 0.706804,0.56368 1.1997945,0.53157 0.294436,-0.0192 0.5215934,-0.1035 0.7537355,-0.2798 0.7289001,-0.55358 0.7289001,-1.6745 0,-2.22809 -0.2494245,-0.18941 -0.4575475,-0.26255 -0.7963625,-0.27983 -0.4783895,-0.0243 -0.7452415,0.10032 -1.1827385,0.55276 -0.195378,0.20205 -0.315126,0.2987 -0.467132,0.37701 -0.371746,0.19152 -0.312103,0.1867 -2.306893,0.1867 h -1.810473 l -0.160607,-0.0759 c -0.200512,-0.0949 -0.304178,-0.19857 -0.412093,-0.41234 -0.216484,-0.42885 -0.317643,-0.9301 -0.31782,-1.57478 -1.08e-4,-0.66765 0.137862,-1.34253 0.349674,-1.70954 0.09881,-0.17121 0.288033,-0.31689 0.490842,-0.37794 0.20171,-0.0607 3.53574,-0.057 3.795357,0.004 0.328224,0.0774 0.518409,0.19756 0.853834,0.53952 0.241008,0.2457 0.347809,0.33216 0.499147,0.40408 0.560988,0.26661 1.1618111,0.16183 1.6010517,-0.27921 0.3159074,-0.3172 0.4304334,-0.62824 0.4037339,-1.0965 -0.013065,-0.22915 -0.028761,-0.28752 -0.1348456,-0.50162 -0.3226598,-0.65115 -1.0622365,-0.95454 -1.72666,-0.70829 -0.250046,0.0926 -0.371726,0.18189 -0.686227,0.50322 -0.30546,0.31206 -0.508335,0.44041 -0.803847,0.50849 -0.08098,0.0187 -0.741118,0.0304 -1.737462,0.0308 -1.783785,6.1e-4 -1.736497,0.006 -1.736832,-0.18344 -1.05e-4,-0.0788 0.03754,-0.12946 0.243088,-0.32687 0.578706,-0.55577 1.395301,-1.01678 2.222655,-1.25481 0.49927,-0.14365 0.868399,-0.196 1.491184,-0.21149 0.66342,-0.0165 1.052592,0.0234 1.6219965,0.16673 1.6341711,0.41103 2.9501021,1.49816 3.5172053,2.90565 0.1182737,0.29353 0.248419,0.76333 0.248419,0.89672 0,0.15022 -0.085958,0.28796 -0.216793,0.34739 -0.1125866,0.0512 -0.2429397,0.0541 -2.4113161,0.0542 -2.5230677,10e-5 -2.5242007,9e-5 -2.8909177,-0.17853 -0.145315,-0.0708 -0.261903,-0.16576 -0.497371,-0.40529 -0.319878,-0.32537 -0.48976,-0.43838 -0.77288,-0.51413 -0.195748,-0.0524 -0.518141,-0.0499 -0.731195,0.006 -0.66357,0.17279 -1.125883,0.88929 -1.011775,1.56805 0.138142,0.82172 0.945658,1.35259 1.741947,1.14518 0.284093,-0.074 0.44853,-0.18339 0.774869,-0.51547 0.24294,-0.24723 0.346582,-0.33074 0.498979,-0.40206 0.375521,-0.17573 0.371595,-0.17549 2.9029453,-0.176 2.5975422,-6e-4 2.4555859,-0.0125 2.5674154,0.21661 0.050409,0.10326 0.052663,0.13505 0.022229,0.31253 -0.085474,0.49844 -0.391062,1.19999 -0.7243117,1.66283 -0.8065126,1.12015 -2.1367204,1.89961 -3.606552,2.11332 -0.397972,0.0579 -1.388576,0.0564 -1.777527,-0.003 z"
         id="path854" />
    </g>
  </g>
</svg>
