<svg height="150" viewBox="0 0 39.687499 39.687501" width="150" xmlns="http://www.w3.org/2000/svg"><rect fill="#e52d27" height="37.041668" ry="3.406449" stroke-width="1.076923" width="37.041668" x="1.300494" y="1.345342"/><g fill="#fff" transform="matrix(1.2504908 0 0 1.6995839 -33.698857 -460.70949)"><g transform="matrix(.85989583 0 0 .85989583 21.50966402649 259.11769412614)"><path d="m17.59322 24.924753h15v1h-15z"/><path d="m17.59322 26.924753h11v1h-11z"/><path d="m17.59322 28.924753h9v1h-9z"/><path d="m17.59322 30.924753h6v1h-6z"/></g><g transform="matrix(.85989583 0 0 .85989583 21.50966402649 258.58852713079)"><path d="m17.59322 24.924753h15v1h-15z"/><path d="m17.59322 26.924753h11v1h-11z"/><path d="m17.59322 28.924753h9v1h-9z"/><path d="m17.59322 30.924753h6v1h-6z"/></g></g></svg>