<svg height="150" viewBox="0 0 39.687499 39.687501" width="150" xmlns="http://www.w3.org/2000/svg"><rect fill="#e52d27" height="37.041668" ry="3.406449" stroke-width="1.076923" width="37.041668" x="1.300494" y="1.345342"/><path d="m71.210203 27.317076h-5.017161l2.179505-2.397455-.469635-.512961-2.645833 2.910416-2.645834-2.910416-.466328.512961 2.176198 2.397455h-5.017161c-.730912 0-1.322917.651206-1.322917 1.455209v8.73125c0 .804002.592005 1.455208 1.322917 1.455208h11.906249c.730911 0 1.322917-.651206 1.322917-1.455208v-8.73125c0-.804003-.592006-1.455209-1.322917-1.455209zm0 10.186459h-11.906249v-8.73125h11.906249zm-7.937499-7.276042v5.820833l4.630208-2.910416z" fill="#fff" stroke-width=".346872" transform="translate(-44.973349 -11.887548)"/></svg>