<?xml version="1.0" encoding="UTF-8" standalone="no"?>
<!-- Created with Inkscape (http://www.inkscape.org/) -->

<svg
   xmlns:dc="http://purl.org/dc/elements/1.1/"
   xmlns:cc="http://creativecommons.org/ns#"
   xmlns:rdf="http://www.w3.org/1999/02/22-rdf-syntax-ns#"
   xmlns:svg="http://www.w3.org/2000/svg"
   xmlns="http://www.w3.org/2000/svg"
   xmlns:sodipodi="http://sodipodi.sourceforge.net/DTD/sodipodi-0.dtd"
   xmlns:inkscape="http://www.inkscape.org/namespaces/inkscape"
   width="150"
   height="150"
   viewBox="0 0 39.687499 39.687501"
   version="1.1"
   id="svg8"
   inkscape:version="0.92.2 (5c3e80d, 2017-08-06)"
   sodipodi:docname="dev_cimodul.svg">
  <defs
     id="defs2" />
  <sodipodi:namedview
     id="base"
     pagecolor="#ffffff"
     bordercolor="#666666"
     borderopacity="1.0"
     inkscape:pageopacity="0.0"
     inkscape:pageshadow="2"
     inkscape:zoom="3.2859797"
     inkscape:cx="-12.354809"
     inkscape:cy="73.736572"
     inkscape:document-units="px"
     inkscape:current-layer="g1133"
     showgrid="false"
     inkscape:window-width="1920"
     inkscape:window-height="1025"
     inkscape:window-x="0"
     inkscape:window-y="27"
     inkscape:window-maximized="1"
     units="px"
     showguides="false"
     inkscape:snap-global="false" />
  <metadata
     id="metadata5">
    <rdf:RDF>
      <cc:Work
         rdf:about="">
        <dc:format>image/svg+xml</dc:format>
        <dc:type
           rdf:resource="http://purl.org/dc/dcmitype/StillImage" />
        <dc:title />
      </cc:Work>
    </rdf:RDF>
  </metadata>
  <g
     inkscape:label="Ebene 1"
     inkscape:groupmode="layer"
     id="layer1"
     transform="translate(0,-257.31248)">
    <g
       id="g829"
       transform="matrix(0.08957248,0,0,0.08957248,-80.58452,169.31962)">
      <g
         id="g840"
         transform="matrix(3.9384617,0,0,3.9384617,-250.59406,-62.154184)">
        <g
           id="g839"
           transform="translate(0.52864116,-0.83635887)">
          <g
             id="g1133"
             transform="matrix(1.0521363,0,0,1.0521363,-18.928804,-17.397876)">
            <path
               inkscape:connector-curvature="0"
               id="rect1108"
               d="m 376.97458,295.00594 v 2.45654 h -73.25977 v 51.92725 h 73.25977 v 2.45654 h 17.89452 v -7.76806 a 15.36777,21.472773 0 0 1 -11.2119,-20.65137 15.36777,21.472773 0 0 1 11.2119,-20.66895 v -7.75195 z"
               style="opacity:1;fill:#000000;fill-opacity:0.2;stroke:none;stroke-width:4.57314157;stroke-miterlimit:4;stroke-dasharray:none;stroke-opacity:1;paint-order:markers fill stroke" />
            <rect
               style="opacity:1;fill:#1681db;fill-opacity:1;stroke:none;stroke-width:4.57314157;stroke-miterlimit:4;stroke-dasharray:none;stroke-opacity:1;paint-order:markers fill stroke"
               id="rect832"
               width="78.900208"
               height="51.92659"
               x="302.2005"
               y="296.33298" />
            <rect
               y="296.33298"
               x="302.2005"
               height="51.92659"
               width="6.6633182"
               id="rect834"
               style="opacity:1;fill:#d4dcde;fill-opacity:1;stroke:none;stroke-width:1.32898748;stroke-miterlimit:4;stroke-dasharray:none;stroke-opacity:1;paint-order:markers fill stroke" />
            <path
               id="rect827"
               d="m 375.45985,293.87643 v 56.83967 h 17.89427 v -7.76803 A 15.36777,21.472773 0 0 1 382.142,322.29701 15.36777,21.472773 0 0 1 393.35412,301.62792 v -7.75149 z"
               style="opacity:1;fill:#d4dcde;fill-opacity:1;stroke:none;stroke-width:4.23667479;stroke-miterlimit:4;stroke-dasharray:none;stroke-opacity:1;paint-order:markers fill stroke"
               inkscape:connector-curvature="0" />
            <path
               inkscape:connector-curvature="0"
               id="path1119"
               d="m 375.72955,293.9399 v 1.94074 h -73.25977 v 1.72548 h 75.10546 v -2.5321 h 16.04883 v -1.13412 z"
               style="opacity:1;fill:#ffffff;fill-opacity:0.2;stroke:none;stroke-width:4.06476927;stroke-miterlimit:4;stroke-dasharray:none;stroke-opacity:1;paint-order:markers fill stroke" />
            <g
               id="g877"
               transform="translate(-4.6691307,18.007929)">
              <g
                 aria-label="d"
                 style="font-style:normal;font-variant:normal;font-weight:normal;font-stretch:normal;font-size:28.51341629px;line-height:1.25;font-family:FreeSans;-inkscape-font-specification:FreeSans;letter-spacing:0px;word-spacing:0px;fill:#000000;fill-opacity:0.2;stroke:none;stroke-width:0.71283537"
                 id="text839">
                <path
                   d="m 337.74564,322.66274 q 1.05812,0 1.26696,-0.7379 0.0557,-0.30629 0.0557,-0.80751 v -4.74759 h 1.80993 v 5.09566 q 0,1.39225 -0.72397,2.17192 -0.37591,0.41767 -0.97458,0.58475 -0.59867,0.15314 -1.67071,0.15314 h -14.47947 q -1.36441,0 -2.22761,-0.75181 -0.91889,-0.80751 -0.90497,-2.158 0,-1.25303 0.83536,-2.08839 0.84927,-0.84927 2.11623,-0.84927 l 11.56965,-0.0279 q 0.82143,0.0557 0.82143,0.8632 0,0.8632 -0.8632,0.8632 -0.0278,0 -0.0696,0 -0.0278,-0.0139 -0.0557,-0.0139 l -11.13805,-0.0139 q -1.54541,0 -1.50364,1.22519 0.0278,1.23911 1.65678,1.23911 z"
                   style="font-style:normal;font-variant:normal;font-weight:normal;font-stretch:normal;font-family:'Captain Podd';-inkscape-font-specification:'Captain Podd';fill:#000000;fill-opacity:0.2;stroke-width:0.71283537"
                   id="path833" />
              </g>
              <g
                 aria-label="d"
                 style="font-style:normal;font-variant:normal;font-weight:normal;font-stretch:normal;font-size:28.51341629px;line-height:1.25;font-family:FreeSans;-inkscape-font-specification:FreeSans;letter-spacing:0px;word-spacing:0px;fill:#ffffff;fill-opacity:1;stroke:none;stroke-width:0.71283537"
                 id="text843">
                <path
                   d="m 337.19492,321.98702 q 1.05812,0 1.26696,-0.7379 0.0557,-0.30629 0.0557,-0.80751 v -4.74759 h 1.80993 v 5.09566 q 0,1.39225 -0.72397,2.17192 -0.37591,0.41767 -0.97458,0.58475 -0.59867,0.15314 -1.67071,0.15314 h -14.47947 q -1.36441,0 -2.22761,-0.75182 -0.91889,-0.8075 -0.90497,-2.15799 0,-1.25303 0.83536,-2.08839 0.84927,-0.84927 2.11623,-0.84927 l 11.56965,-0.0279 q 0.82143,0.0557 0.82143,0.8632 0,0.8632 -0.8632,0.8632 -0.0278,0 -0.0696,0 -0.0279,-0.0139 -0.0557,-0.0139 l -11.13805,-0.0139 q -1.54541,0 -1.50364,1.22519 0.0278,1.23911 1.65678,1.23911 z"
                   style="font-style:normal;font-variant:normal;font-weight:normal;font-stretch:normal;font-family:'Captain Podd';-inkscape-font-specification:'Captain Podd';fill:#ffffff;stroke-width:0.71283537"
                   id="path836" />
              </g>
              <g
                 aria-label="d"
                 style="font-style:normal;font-variant:normal;font-weight:normal;font-stretch:normal;font-size:28.51341629px;line-height:1.25;font-family:FreeSans;-inkscape-font-specification:FreeSans;letter-spacing:0px;word-spacing:0px;fill:#000000;fill-opacity:0.2;stroke:none;stroke-width:0.71283537"
                 id="text847">
                <path
                   d="m 337.74564,322.66274 q 1.05812,0 1.26696,-0.7379 0.0557,-0.30629 0.0557,-0.80751 v -4.74759 h 1.80993 v 5.09566 q 0,1.39225 -0.72397,2.17192 -0.37591,0.41767 -0.97458,0.58475 -0.59867,0.15314 -1.67071,0.15314 h -14.47947 q -1.36441,0 -2.22761,-0.75181 -0.91889,-0.80751 -0.90497,-2.158 0,-1.25303 0.83536,-2.08839 0.84927,-0.84927 2.11623,-0.84927 l 11.56965,-0.0279 q 0.82143,0.0557 0.82143,0.8632 0,0.8632 -0.8632,0.8632 -0.0278,0 -0.0696,0 -0.0278,-0.0139 -0.0557,-0.0139 l -11.13805,-0.0139 q -1.54541,0 -1.50364,1.22519 0.0278,1.23911 1.65678,1.23911 z"
                   style="font-style:normal;font-variant:normal;font-weight:normal;font-stretch:normal;font-family:'Captain Podd';-inkscape-font-specification:'Captain Podd';fill:#000000;fill-opacity:0.2;stroke-width:0.71283537"
                   id="path839" />
              </g>
              <g
                 aria-label="d"
                 style="font-style:normal;font-variant:normal;font-weight:normal;font-stretch:normal;font-size:28.51341629px;line-height:1.25;font-family:FreeSans;-inkscape-font-specification:FreeSans;letter-spacing:0px;word-spacing:0px;fill:#ffffff;fill-opacity:1;stroke:none;stroke-width:0.71283537"
                 id="text851">
                <path
                   d="m 337.19492,321.98702 q 1.05812,0 1.26696,-0.7379 0.0557,-0.30629 0.0557,-0.80751 v -4.74759 h 1.80993 v 5.09566 q 0,1.39225 -0.72397,2.17192 -0.37591,0.41767 -0.97458,0.58475 -0.59867,0.15314 -1.67071,0.15314 h -14.47947 q -1.36441,0 -2.22761,-0.75182 -0.91889,-0.8075 -0.90497,-2.15799 0,-1.25303 0.83536,-2.08839 0.84927,-0.84927 2.11623,-0.84927 l 11.56965,-0.0279 q 0.82143,0.0557 0.82143,0.8632 0,0.8632 -0.8632,0.8632 -0.0278,0 -0.0696,0 -0.0279,-0.0139 -0.0557,-0.0139 l -11.13805,-0.0139 q -1.54541,0 -1.50364,1.22519 0.0278,1.23911 1.65678,1.23911 z"
                   style="font-style:normal;font-variant:normal;font-weight:normal;font-stretch:normal;font-family:'Captain Podd';-inkscape-font-specification:'Captain Podd';fill:#ffffff;stroke-width:0.71283537"
                   id="path830" />
              </g>
            </g>
          </g>
        </g>
      </g>
    </g>
  </g>
</svg>
