<?xml version="1.0" encoding="UTF-8" standalone="no"?>
<!-- Created with Inkscape (http://www.inkscape.org/) -->

<svg
   xmlns:dc="http://purl.org/dc/elements/1.1/"
   xmlns:cc="http://creativecommons.org/ns#"
   xmlns:rdf="http://www.w3.org/1999/02/22-rdf-syntax-ns#"
   xmlns:svg="http://www.w3.org/2000/svg"
   xmlns="http://www.w3.org/2000/svg"
   xmlns:xlink="http://www.w3.org/1999/xlink"
   xmlns:sodipodi="http://sodipodi.sourceforge.net/DTD/sodipodi-0.dtd"
   xmlns:inkscape="http://www.inkscape.org/namespaces/inkscape"
   width="150"
   height="150"
   viewBox="0 0 39.687499 39.687501"
   version="1.1"
   id="svg8"
   inkscape:version="0.92.2 (5c3e80d, 2017-08-06)"
   sodipodi:docname="gemininetcast.icon_gsripper.svg">
  <defs
     id="defs2">
    <filter
       filterUnits="objectBoundingBox"
       y="0%"
       x="0%"
       height="100%"
       width="100%"
       id="alpha">
      <feColorMatrix
         id="feColorMatrix816"
         values="0 0 0 0 1 0 0 0 0 1 0 0 0 0 1 0 0 0 1 0"
         type="matrix"
         in="SourceGraphic" />
    </filter>
    <mask
       id="mask0">
      <g
         id="g821"
         filter="url(#alpha)">
        <rect
           id="rect819"
           style="fill:rgb(0%,0%,0%);fill-opacity:0.301961"
           y="0"
           x="0"
           height="384"
           width="384" />
      </g>
    </mask>
    <clipPath
       id="clip1">
      <rect
         id="rect824"
         y="0"
         x="0"
         height="384"
         width="384" />
    </clipPath>
    <g
       clip-path="url(#clip1)"
       id="surface5">
      <path
         id="path827"
         d="M 192 105.75 C 140.0625 105.75 98.25 147.5625 98.25 199.5 C 98.25 251.4375 140.0625 293.25 192 293.25 C 243.9375 293.25 285.75 251.4375 285.75 199.5 C 285.75 147.5625 243.9375 105.75 192 105.75 Z M 192 124.5 C 233.550781 124.5 267 157.949219 267 199.5 C 267 241.050781 233.550781 274.5 192 274.5 C 150.449219 274.5 117 241.050781 117 199.5 C 117 157.949219 150.449219 124.5 192 124.5 Z M 192 155.75 L 148.25 199.5 L 173.25 199.5 L 173.25 243.25 L 210.75 243.25 L 210.75 199.5 L 235.75 199.5 Z M 192 155.75"
         style="fill:rgb(0%,0%,0%)" />
    </g>
    <filter
       filterUnits="objectBoundingBox"
       y="0%"
       x="0%"
       height="100%"
       width="100%"
       id="alpha-3">
      <feColorMatrix
         id="feColorMatrix823"
         values="0 0 0 0 1 0 0 0 0 1 0 0 0 0 1 0 0 0 1 0"
         type="matrix"
         in="SourceGraphic" />
    </filter>
    <mask
       id="mask0-6">
      <g
         style="filter:url(#alpha-3)"
         id="g828"
         filter="url(#alpha)">
        <rect
           id="rect826"
           style="fill:rgb(0%,0%,0%);fill-opacity:0.2"
           y="0"
           x="0"
           height="384"
           width="384" />
      </g>
    </mask>
    <clipPath
       id="clip1-0">
      <rect
         id="rect831"
         y="0"
         x="0"
         height="384"
         width="384" />
    </clipPath>
    <g
       clip-path="url(#clip1-0)"
       id="surface5-6">
      <path
         id="path834"
         d="M 359.746094 190.96875 C 357.0625 281.707031 282.78125 353.902344 192 354 C 101.996094 353.9375 28.03125 282.957031 24.265625 193.03125 C 24.152344 194.6875 24.0625 196.34375 24 198 C 24 290.785156 99.214844 366 192 366 C 284.785156 366 360 290.785156 360 198 C 359.964844 195.65625 359.882812 193.308594 359.746094 190.96875 Z M 359.746094 190.96875"
         style="fill:rgb(0%,0%,0%)" />
    </g>
    <mask
       id="mask1">
      <g
         style="filter:url(#alpha-3)"
         id="g839"
         filter="url(#alpha)">
        <rect
           id="rect837"
           style="fill:rgb(0%,0%,0%);fill-opacity:0.2"
           y="0"
           x="0"
           height="384"
           width="384" />
      </g>
    </mask>
    <clipPath
       id="clip2">
      <rect
         id="rect842"
         y="0"
         x="0"
         height="384"
         width="384" />
    </clipPath>
    <g
       clip-path="url(#clip2)"
       id="surface8">
      <path
         id="path845"
         d="M 312 198 C 312 264.273438 258.273438 318 192 318 C 125.726562 318 72 264.273438 72 198 C 72 131.726562 125.726562 78 192 78 C 258.273438 78 312 131.726562 312 198 Z M 312 198"
         style="fill:rgb(0%,0%,0%)" />
    </g>
    <mask
       id="mask2">
      <g
         style="filter:url(#alpha-3)"
         id="g850"
         filter="url(#alpha)">
        <rect
           id="rect848"
           style="fill:rgb(0%,0%,0%);fill-opacity:0.8"
           y="0"
           x="0"
           height="384"
           width="384" />
      </g>
    </mask>
    <clipPath
       id="clip3">
      <rect
         id="rect853"
         y="0"
         x="0"
         height="384"
         width="384" />
    </clipPath>
    <g
       clip-path="url(#clip3)"
       id="surface11">
      <path
         id="path856"
         d="M 156 120 L 156 204.613281 C 154.027344 204.207031 152.015625 204 150 204 C 133.429688 204 120 217.429688 120 234 C 120 250.570312 133.429688 264 150 264 C 166.570312 264 180 250.570312 180 234 L 180 144 L 228 144 L 228 180.613281 C 226.027344 180.207031 224.015625 180 222 180 C 205.429688 180 192 193.429688 192 210 C 192 226.570312 205.429688 240 222 240 C 238.570312 240 252 226.570312 252 210 L 252 120 Z M 156 120"
         style="fill:rgb(0%,0%,0%)" />
    </g>
    <mask
       id="mask3">
      <g
         style="filter:url(#alpha-3)"
         id="g861"
         filter="url(#alpha)">
        <rect
           id="rect859"
           style="fill:rgb(0%,0%,0%);fill-opacity:0.2"
           y="0"
           x="0"
           height="384"
           width="384" />
      </g>
    </mask>
    <clipPath
       id="clip4">
      <rect
         id="rect864"
         y="0"
         x="0"
         height="384"
         width="384" />
    </clipPath>
    <g
       clip-path="url(#clip4)"
       id="surface14">
      <path
         id="path867"
         d="M 191.988281 24 C 99.210938 24.007812 24 99.222656 24 192 C 24.027344 192.984375 24.0625 193.96875 24.105469 194.953125 C 25.765625 103.40625 100.425781 30.046875 191.988281 30 L 192 30 C 283.5625 30.074219 358.199219 103.453125 359.835938 195 C 359.894531 194 359.945312 193 359.988281 192 C 359.988281 99.222656 284.777344 24.007812 192 24 Z M 191.988281 24"
         style="fill:rgb(100%,100%,100%)" />
    </g>
  </defs>
  <sodipodi:namedview
     id="base"
     pagecolor="#ffffff"
     bordercolor="#666666"
     borderopacity="1.0"
     inkscape:pageopacity="0.0"
     inkscape:pageshadow="2"
     inkscape:zoom="2.9937095"
     inkscape:cx="23.245323"
     inkscape:cy="67.209302"
     inkscape:document-units="px"
     inkscape:current-layer="g886"
     showgrid="false"
     inkscape:window-width="1920"
     inkscape:window-height="1025"
     inkscape:window-x="0"
     inkscape:window-y="27"
     inkscape:window-maximized="1"
     units="px" />
  <metadata
     id="metadata5">
    <rdf:RDF>
      <cc:Work
         rdf:about="">
        <dc:format>image/svg+xml</dc:format>
        <dc:type
           rdf:resource="http://purl.org/dc/dcmitype/StillImage" />
        <dc:title />
      </cc:Work>
    </rdf:RDF>
  </metadata>
  <g
     inkscape:label="Ebene 1"
     inkscape:groupmode="layer"
     id="layer1"
     transform="translate(0,-257.31248)">
    <g
       id="g829"
       transform="matrix(0.08957248,0,0,0.08957248,-80.58452,169.31962)">
      <g
         id="g840"
         transform="matrix(3.9384617,0,0,3.9384617,-250.59406,-62.154184)">
        <g
           id="g886"
           transform="matrix(0.29017857,0,0,0.29017857,292.59167,264.87509)">
          <use
             id="use872"
             xlink:href="#surface5-6"
             mask="url(#mask0-6)"
             x="0"
             y="0"
             width="100%"
             height="100%" />
          <path
             id="path874"
             d="M 360,192 C 360,284.78516 284.78516,360 192,360 99.214844,360 24,284.78516 24,192 24,99.214844 99.214844,24 192,24 c 92.78516,0 168,75.214844 168,168 z m 0,0"
             style="fill:#736bab"
             inkscape:connector-curvature="0" />
          <path
             id="path876"
             d="m 360,192 c 0,92.78516 -75.21484,168 -168,168 V 24 c 92.78516,0 168,75.214844 168,168 z m 0,0"
             style="fill:#4cd66f;fill-opacity:1"
             inkscape:connector-curvature="0" />
          <use
             id="use878"
             xlink:href="#surface8"
             mask="url(#mask1)"
             x="0"
             y="0"
             width="100%"
             height="100%" />
          <path
             id="path880"
             d="M 312,192 C 312,258.27344 258.27344,312 192,312 125.72656,312 72,258.27344 72,192 72,125.72656 125.72656,72 192,72 c 66.27344,0 120,53.72656 120,120 z m 0,0"
             style="fill:#ffffff"
             inkscape:connector-curvature="0" />
          <use
             id="use882"
             xlink:href="#surface11"
             mask="url(#mask2)"
             x="0"
             y="0"
             width="100%"
             height="100%" />
          <use
             id="use884"
             xlink:href="#surface14"
             mask="url(#mask3)"
             x="0"
             y="0"
             width="100%"
             height="100%" />
        </g>
      </g>
    </g>
  </g>
</svg>
