<?xml version="1.0" encoding="UTF-8" standalone="no"?>
<!-- Created with Inkscape (http://www.inkscape.org/) -->

<svg
   xmlns:dc="http://purl.org/dc/elements/1.1/"
   xmlns:cc="http://creativecommons.org/ns#"
   xmlns:rdf="http://www.w3.org/1999/02/22-rdf-syntax-ns#"
   xmlns:svg="http://www.w3.org/2000/svg"
   xmlns="http://www.w3.org/2000/svg"
   xmlns:sodipodi="http://sodipodi.sourceforge.net/DTD/sodipodi-0.dtd"
   xmlns:inkscape="http://www.inkscape.org/namespaces/inkscape"
   width="150"
   height="150"
   viewBox="0 0 39.687499 39.687501"
   version="1.1"
   id="svg8"
   inkscape:version="0.92.2 (5c3e80d, 2017-08-06)"
   sodipodi:docname="birthday.svg">
  <defs
     id="defs2">
    <filter
       filterUnits="objectBoundingBox"
       y="0%"
       x="0%"
       height="100%"
       width="100%"
       id="alpha">
      <feColorMatrix
         id="feColorMatrix816"
         values="0 0 0 0 1 0 0 0 0 1 0 0 0 0 1 0 0 0 1 0"
         type="matrix"
         in="SourceGraphic" />
    </filter>
    <mask
       id="mask0">
      <g
         id="g821"
         filter="url(#alpha)">
        <rect
           id="rect819"
           style="fill:rgb(0%,0%,0%);fill-opacity:0.301961"
           y="0"
           x="0"
           height="384"
           width="384" />
      </g>
    </mask>
    <clipPath
       id="clip1">
      <rect
         id="rect824"
         y="0"
         x="0"
         height="384"
         width="384" />
    </clipPath>
    <g
       clip-path="url(#clip1)"
       id="surface5">
      <path
         id="path827"
         d="M 192 105.75 C 140.0625 105.75 98.25 147.5625 98.25 199.5 C 98.25 251.4375 140.0625 293.25 192 293.25 C 243.9375 293.25 285.75 251.4375 285.75 199.5 C 285.75 147.5625 243.9375 105.75 192 105.75 Z M 192 124.5 C 233.550781 124.5 267 157.949219 267 199.5 C 267 241.050781 233.550781 274.5 192 274.5 C 150.449219 274.5 117 241.050781 117 199.5 C 117 157.949219 150.449219 124.5 192 124.5 Z M 192 155.75 L 148.25 199.5 L 173.25 199.5 L 173.25 243.25 L 210.75 243.25 L 210.75 199.5 L 235.75 199.5 Z M 192 155.75"
         style="fill:rgb(0%,0%,0%)" />
    </g>
  </defs>
  <sodipodi:namedview
     id="base"
     pagecolor="#ffffff"
     bordercolor="#666666"
     borderopacity="1.0"
     inkscape:pageopacity="0.0"
     inkscape:pageshadow="2"
     inkscape:zoom="2.9719768"
     inkscape:cx="52.554642"
     inkscape:cy="74.789299"
     inkscape:document-units="px"
     inkscape:current-layer="g840"
     showgrid="false"
     inkscape:window-width="1920"
     inkscape:window-height="1025"
     inkscape:window-x="0"
     inkscape:window-y="27"
     inkscape:window-maximized="1"
     units="px" />
  <metadata
     id="metadata5">
    <rdf:RDF>
      <cc:Work
         rdf:about="">
        <dc:format>image/svg+xml</dc:format>
        <dc:type
           rdf:resource="http://purl.org/dc/dcmitype/StillImage" />
        <dc:title />
      </cc:Work>
    </rdf:RDF>
  </metadata>
  <g
     inkscape:label="Ebene 1"
     inkscape:groupmode="layer"
     id="layer1"
     transform="translate(0,-257.31248)">
    <g
       id="g829"
       transform="matrix(0.08957248,0,0,0.08957248,-80.58452,169.31962)">
      <g
         id="g840"
         transform="matrix(3.9384617,0,0,3.9384617,-250.59406,-62.154184)">
        <g
           id="g1005"
           transform="matrix(0.99018736,0,0,0.99018736,3.4178008,3.897012)">
          <g
             id="g956"
             transform="matrix(0.19696969,0,0,0.19696969,186.24753,244.19354)">
            <g
               id="g924">
              <path
                 inkscape:connector-curvature="0"
                 d="m 843.43718,281.94044 c 18.966,-7.873 32.342,-26.582 32.342,-48.362 0,-11.353 -3.578,-22.157 -10.366,-31.271 l -41.976,-56.177 -41.994,56.202 c -6.77,9.089 -10.348,19.894 -10.348,31.246 0,21.78 13.376,40.489 32.342,48.362 6.166,2.56 12.919,3.98 20,3.98 7.081,0 13.834,-1.42 20,-3.98 z m -268.179,246.47999 h 495.00002 v 40 H 575.25818 Z m 431.23002,110.00001 19.695,-70 H 822.75818 v 70 z m -366.96102,0 h 183.231 v -70 h -203.339 z m 113.171,-231.898 c 34.55,0 34.55,29.08 69.11,29.08 34.55,0 34.55,-29.08 69.11,-29.08 34.56,0 34.56,29.08 69.11,29.08 34.56,0 34.56,-29.08 69.12002,-29.08 v -28.6 c 0,-33.09 -26.91,-60 -60.00002,-60 h -294.67 c -33.08,0 -60,26.91 -60,60 v 28.6 c 34.56,0 34.56,29.08 69.11,29.08 34.55,0 34.55,-29.08 69.11,-29.08 z m 138.22,0 c -34.56,0 -34.56,29.08 -69.11,29.08 v 92.818 h 207.34002 v -121.898 c -34.56002,0 -34.56002,29.08 -69.12002,29.08 -34.55,0 -34.55,-29.08 -69.11,-29.08 z m -69.11,29.08 c 34.55,0 34.55,-29.08 69.11,-29.08 34.56,0 34.56,29.08 69.11,29.08 34.56,0 34.56,-29.08 69.12002,-29.08 -34.56002,0 -34.56002,29.08 -69.12002,29.08 -34.55,0 -34.55,-29.08 -69.11,-29.08 -34.56,0 -34.56,29.08 -69.11,29.08 -34.56,0 -34.56,-29.08 -69.11,-29.08 -34.56,0 -34.56,29.08 -69.11,29.08 -34.55,0 -34.55,-29.08 -69.11,-29.08 v 121.898 h 207.33 z m 21.629,-153.662 c -6.166,2.56 -12.919,3.98 -20,3.98 -7.081,0 -13.834,-1.42 -20,-3.98 v 35.981 h 40 z"
                 style="fill:#f2f2f2"
                 id="path922" />
            </g>
            <g
               id="g926" />
            <g
               id="g928" />
            <g
               id="g930" />
            <g
               id="g932" />
            <g
               id="g934" />
            <g
               id="g936" />
            <g
               id="g938" />
            <g
               id="g940" />
            <g
               id="g942" />
            <g
               id="g944" />
            <g
               id="g946" />
            <g
               id="g948" />
            <g
               id="g950" />
            <g
               id="g952" />
            <g
               id="g954" />
          </g>
          <g
             transform="matrix(0.19696969,0,0,0.19696969,299.55595,271.20991)"
             id="g906">
            <g
               id="g843">
              <path
                 inkscape:connector-curvature="0"
                 style="fill:#ebe5dd"
                 d="m 268.179,137.165 c -6.166,2.56 -12.919,3.98 -20,3.98 -7.081,0 -13.834,-1.42 -20,-3.98 v 35.981 h 40 z"
                 id="path827-3" />
              <path
                 inkscape:connector-curvature="0"
                 style="fill:#ff7956"
                 d="m 246.55,290.827 c 34.55,0 34.55,-29.08 69.11,-29.08 34.56,0 34.56,29.08 69.11,29.08 34.56,0 34.56,-29.08 69.12,-29.08 -34.56,0 -34.56,29.08 -69.12,29.08 -34.55,0 -34.55,-29.08 -69.11,-29.08 -34.56,0 -34.56,29.08 -69.11,29.08 -34.56,0 -34.56,-29.08 -69.11,-29.08 -34.56,0 -34.56,29.08 -69.11,29.08 -34.55,0 -34.55,-29.08 -69.11,-29.08 v 121.898 h 207.33 z"
                 id="path829" />
              <path
                 inkscape:connector-curvature="0"
                 style="fill:#ff5023"
                 d="m 315.66,261.747 c -34.56,0 -34.56,29.08 -69.11,29.08 v 92.818 H 453.89 V 261.747 c -34.56,0 -34.56,29.08 -69.12,29.08 -34.55,0 -34.55,-29.08 -69.11,-29.08 z"
                 id="path831" />
              <path
                 inkscape:connector-curvature="0"
                 style="fill:#cd2a00"
                 d="m 177.44,261.747 c 34.55,0 34.55,29.08 69.11,29.08 34.55,0 34.55,-29.08 69.11,-29.08 34.56,0 34.56,29.08 69.11,29.08 34.56,0 34.56,-29.08 69.12,-29.08 v -28.6 c 0,-33.09 -26.91,-60 -60,-60 H 99.22 c -33.08,0 -60,26.91 -60,60 v 28.6 c 34.56,0 34.56,29.08 69.11,29.08 34.55,0 34.55,-29.08 69.11,-29.08 z"
                 id="path833" />
              <polygon
                 style="fill:#ebe5dd"
                 points="247.5,493.645 247.5,423.645 44.161,423.645 64.269,493.645 "
                 id="polygon835" />
              <polygon
                 style="fill:#d9ccbc"
                 points="450.925,423.645 247.5,423.645 247.5,493.645 431.23,493.645 "
                 id="polygon837" />
              <rect
                 x="0"
                 y="383.64499"
                 style="fill:#c0ab91"
                 width="495"
                 height="40"
                 id="rect839" />
              <path
                 inkscape:connector-curvature="0"
                 style="fill:#ffcd00"
                 d="m 268.179,137.165 c 18.966,-7.873 32.342,-26.582 32.342,-48.362 0,-11.353 -3.578,-22.157 -10.366,-31.271 L 248.179,1.355 206.185,57.557 c -6.77,9.089 -10.348,19.894 -10.348,31.246 0,21.78 13.376,40.489 32.342,48.362 6.166,2.56 12.919,3.98 20,3.98 7.081,0 13.834,-1.42 20,-3.98 z"
                 id="path841" />
            </g>
            <g
               id="g845" />
            <g
               id="g847" />
            <g
               id="g849" />
            <g
               id="g851" />
            <g
               id="g853" />
            <g
               id="g855" />
            <g
               id="g857" />
            <g
               id="g859" />
            <g
               id="g861" />
            <g
               id="g863" />
            <g
               id="g865" />
            <g
               id="g867" />
            <g
               id="g869" />
            <g
               id="g871" />
            <g
               id="g873" />
          </g>
        </g>
      </g>
    </g>
  </g>
</svg>
