<?xml version="1.0" encoding="UTF-8" standalone="no"?>
<!-- Created with Inkscape (http://www.inkscape.org/) -->

<svg
   xmlns:dc="http://purl.org/dc/elements/1.1/"
   xmlns:cc="http://creativecommons.org/ns#"
   xmlns:rdf="http://www.w3.org/1999/02/22-rdf-syntax-ns#"
   xmlns:svg="http://www.w3.org/2000/svg"
   xmlns="http://www.w3.org/2000/svg"
   xmlns:xlink="http://www.w3.org/1999/xlink"
   xmlns:sodipodi="http://sodipodi.sourceforge.net/DTD/sodipodi-0.dtd"
   xmlns:inkscape="http://www.inkscape.org/namespaces/inkscape"
   width="150"
   height="150"
   viewBox="0 0 39.687499 39.687501"
   version="1.1"
   id="svg8"
   inkscape:version="0.92.2 (5c3e80d, 2017-08-06)"
   sodipodi:docname="Note.svg">
  <defs
     id="defs2">
    <filter
       filterUnits="objectBoundingBox"
       y="0%"
       x="0%"
       height="100%"
       width="100%"
       id="alpha">
      <feColorMatrix
         id="feColorMatrix816"
         values="0 0 0 0 1 0 0 0 0 1 0 0 0 0 1 0 0 0 1 0"
         type="matrix"
         in="SourceGraphic" />
    </filter>
    <mask
       id="mask0">
      <g
         id="g821"
         filter="url(#alpha)">
        <rect
           id="rect819"
           style="fill:rgb(0%,0%,0%);fill-opacity:0.301961"
           y="0"
           x="0"
           height="384"
           width="384" />
      </g>
    </mask>
    <clipPath
       id="clip1">
      <rect
         id="rect824"
         y="0"
         x="0"
         height="384"
         width="384" />
    </clipPath>
    <g
       clip-path="url(#clip1)"
       id="surface5">
      <path
         id="path827"
         d="M 192 105.75 C 140.0625 105.75 98.25 147.5625 98.25 199.5 C 98.25 251.4375 140.0625 293.25 192 293.25 C 243.9375 293.25 285.75 251.4375 285.75 199.5 C 285.75 147.5625 243.9375 105.75 192 105.75 Z M 192 124.5 C 233.550781 124.5 267 157.949219 267 199.5 C 267 241.050781 233.550781 274.5 192 274.5 C 150.449219 274.5 117 241.050781 117 199.5 C 117 157.949219 150.449219 124.5 192 124.5 Z M 192 155.75 L 148.25 199.5 L 173.25 199.5 L 173.25 243.25 L 210.75 243.25 L 210.75 199.5 L 235.75 199.5 Z M 192 155.75"
         style="fill:rgb(0%,0%,0%)" />
    </g>
    <filter
       filterUnits="objectBoundingBox"
       y="0%"
       x="0%"
       height="100%"
       width="100%"
       id="alpha-3">
      <feColorMatrix
         id="feColorMatrix827"
         values="0 0 0 0 1 0 0 0 0 1 0 0 0 0 1 0 0 0 1 0"
         type="matrix"
         in="SourceGraphic" />
    </filter>
    <mask
       id="mask0-6">
      <g
         style="filter:url(#alpha-3)"
         id="g832"
         filter="url(#alpha)">
        <rect
           id="rect830"
           style="fill:rgb(0%,0%,0%);fill-opacity:0.2"
           y="0"
           x="0"
           height="384"
           width="384" />
      </g>
    </mask>
    <clipPath
       id="clip1-0">
      <rect
         id="rect835"
         y="0"
         x="0"
         height="384"
         width="384" />
    </clipPath>
    <g
       clip-path="url(#clip1-0)"
       id="surface5-6">
      <path
         id="path838-2"
         d="M 360 349.199219 L 360 46.800781 C 360 37.523438 352.476562 30 343.199219 30 L 40.800781 30 C 31.523438 30 24 37.523438 24 46.800781 L 24 349.199219 C 24 358.476562 31.523438 366 40.800781 366 L 343.199219 366 C 352.476562 366 360 358.476562 360 349.199219 Z M 360 349.199219"
         style="fill:rgb(0%,0%,0%)" />
    </g>
    <mask
       id="mask1">
      <g
         style="filter:url(#alpha-3)"
         id="g843"
         filter="url(#alpha)">
        <rect
           id="rect841"
           style="fill:rgb(0%,0%,0%);fill-opacity:0.2"
           y="0"
           x="0"
           height="384"
           width="384" />
      </g>
    </mask>
    <clipPath
       id="clip2">
      <rect
         id="rect846"
         y="0"
         x="0"
         height="384"
         width="384" />
    </clipPath>
    <g
       clip-path="url(#clip2)"
       id="surface8">
      <path
         id="path849"
         d="M 24 108 L 24 114 L 360 114 L 360 108 Z M 24 108"
         style="fill:rgb(0%,0%,0%)" />
    </g>
    <mask
       id="mask2">
      <g
         style="filter:url(#alpha-3)"
         id="g854"
         filter="url(#alpha)">
        <rect
           id="rect852"
           style="fill:rgb(0%,0%,0%);fill-opacity:0.2"
           y="0"
           x="0"
           height="384"
           width="384" />
      </g>
    </mask>
    <clipPath
       id="clip3">
      <rect
         id="rect857"
         y="0"
         x="0"
         height="384"
         width="384" />
    </clipPath>
    <g
       clip-path="url(#clip3)"
       id="surface11">
      <path
         id="path860"
         d="M 72 156 L 72 174 L 312 174 L 312 156 Z M 72 198 L 72 216 L 264 216 L 264 198 Z M 72 240 L 72 258 L 288 258 L 288 240 Z M 72 282 L 72 300 L 240 300 L 240 282 Z M 72 282"
         style="fill:rgb(0%,0%,0%)" />
    </g>
    <mask
       id="mask3">
      <g
         style="filter:url(#alpha-3)"
         id="g865-6"
         filter="url(#alpha)">
        <rect
           id="rect863"
           style="fill:rgb(0%,0%,0%);fill-opacity:0.2"
           y="0"
           x="0"
           height="384"
           width="384" />
      </g>
    </mask>
    <clipPath
       id="clip4">
      <rect
         id="rect868"
         y="0"
         x="0"
         height="384"
         width="384" />
    </clipPath>
    <g
       clip-path="url(#clip4)"
       id="surface14">
      <path
         id="path871"
         d="M 40.804688 24 C 31.496094 24 24 31.503906 24 40.804688 L 24 46.804688 C 24 37.503906 31.496094 30 40.804688 30 L 343.195312 30 C 352.492188 30 360 37.503906 360 46.804688 L 360 40.804688 C 360 31.503906 352.492188 24 343.195312 24 Z M 40.804688 24"
         style="fill:rgb(100%,100%,100%)" />
    </g>
    <filter
       filterUnits="objectBoundingBox"
       y="0%"
       x="0%"
       height="100%"
       width="100%"
       id="alpha-0">
      <feColorMatrix
         id="feColorMatrix933"
         values="0 0 0 0 1 0 0 0 0 1 0 0 0 0 1 0 0 0 1 0"
         type="matrix"
         in="SourceGraphic" />
    </filter>
    <mask
       id="mask0-3">
      <g
         style="filter:url(#alpha-0)"
         id="g938"
         filter="url(#alpha)">
        <rect
           id="rect936"
           style="fill:rgb(0%,0%,0%);fill-opacity:0.2"
           y="0"
           x="0"
           height="384"
           width="384" />
      </g>
    </mask>
    <clipPath
       id="clip1-6">
      <rect
         id="rect941"
         y="0"
         x="0"
         height="384"
         width="384" />
    </clipPath>
    <g
       clip-path="url(#clip1-6)"
       id="surface5-1">
      <path
         id="path944"
         d="M 360 234 L 240 354 L 42 354 C 32.027344 354 24 345.972656 24 336 L 24 348 C 24 357.972656 32.027344 366 42 366 L 240 366 L 360 246 Z M 360 234"
         style="fill:rgb(0%,0%,0%)" />
    </g>
    <clipPath
       id="clip2-0">
      <path
         id="path947"
         d="M 24 24 L 360 24 L 360 360 L 24 360 Z M 24 24" />
    </clipPath>
    <clipPath
       id="clip3-6">
      <path
         id="path950"
         d="M 42 24 C 32.027344 24 24 32.027344 24 42 L 24 342 C 24 351.972656 32.027344 360 42 360 L 240 360 L 360 240 L 360 42 C 360 32.027344 351.972656 24 342 24 Z M 42 24" />
    </clipPath>
    <mask
       id="mask1-3">
      <g
         style="filter:url(#alpha-0)"
         id="g955"
         filter="url(#alpha)">
        <rect
           id="rect953"
           style="fill:rgb(0%,0%,0%);fill-opacity:0.2"
           y="0"
           x="0"
           height="384"
           width="384" />
      </g>
    </mask>
    <clipPath
       id="clip4-2">
      <rect
         id="rect958"
         y="0"
         x="0"
         height="384"
         width="384" />
    </clipPath>
    <g
       clip-path="url(#clip4-2)"
       id="surface8-0">
      <path
         id="path961"
         d="M 360 240 L 258 240 C 248.058594 240 240 248.058594 240 258 L 240 360 Z M 360 240"
         style="fill:rgb(0%,0%,0%)" />
    </g>
    <mask
       id="mask2-6">
      <g
         style="filter:url(#alpha-0)"
         id="g966"
         filter="url(#alpha)">
        <rect
           id="rect964"
           style="fill:rgb(0%,0%,0%);fill-opacity:0.101961"
           y="0"
           x="0"
           height="384"
           width="384" />
      </g>
    </mask>
    <clipPath
       id="clip5">
      <rect
         id="rect969"
         y="0"
         x="0"
         height="384"
         width="384" />
    </clipPath>
    <g
       clip-path="url(#clip5)"
       id="surface11-1">
      <path
         id="path972"
         d="M 258 240 C 248.0625 240 240 248.0625 240 258 L 240 264 C 240 254.0625 248.0625 246 258 246 L 354 246 L 360 240 Z M 258 240"
         style="fill:rgb(100%,100%,100%)" />
    </g>
    <mask
       id="mask3-5">
      <g
         style="filter:url(#alpha-0)"
         id="g977"
         filter="url(#alpha)">
        <rect
           id="rect975"
           style="fill:rgb(0%,0%,0%);fill-opacity:0.101961"
           y="0"
           x="0"
           height="384"
           width="384" />
      </g>
    </mask>
    <clipPath
       id="clip6">
      <rect
         id="rect980"
         y="0"
         x="0"
         height="384"
         width="384" />
    </clipPath>
    <g
       clip-path="url(#clip6)"
       id="surface14-5">
      <path
         id="path983"
         d="M 48 24 C 38.027344 24 24 38.027344 24 48 L 24 54 C 24 44.027344 38.027344 30 48 30 L 336 30 C 345.972656 30 360 44.027344 360 54 L 360 48 C 360 38.027344 345.972656 24 336 24 Z M 48 24"
         style="fill:rgb(100%,100%,100%)" />
    </g>
    <mask
       id="mask4">
      <g
         style="filter:url(#alpha-0)"
         id="g988"
         filter="url(#alpha)">
        <rect
           id="rect986"
           style="fill:rgb(0%,0%,0%);fill-opacity:0.501961"
           y="0"
           x="0"
           height="384"
           width="384" />
      </g>
    </mask>
    <clipPath
       id="clip7">
      <rect
         id="rect991"
         y="0"
         x="0"
         height="384"
         width="384" />
    </clipPath>
    <g
       clip-path="url(#clip7)"
       id="surface17">
      <path
         id="path994"
         d="M 120 108 L 120 96 L 264 96 L 264 108 Z M 120 108"
         style="fill:rgb(0%,0%,0%)" />
      <path
         id="path996"
         d="M 120 144 L 120 132 L 264 132 L 264 144 Z M 120 144"
         style="fill:rgb(0%,0%,0%)" />
      <path
         id="path998"
         d="M 120 180 L 120 168 L 264 168 L 264 180 Z M 120 180"
         style="fill:rgb(0%,0%,0%)" />
      <path
         id="path1000"
         d="M 120 216 L 120 204 L 216 204 L 216 216 Z M 120 216"
         style="fill:rgb(0%,0%,0%)" />
    </g>
    <filter
       filterUnits="objectBoundingBox"
       y="0%"
       x="0%"
       height="100%"
       width="100%"
       id="alpha-5">
      <feColorMatrix
         id="feColorMatrix1085"
         values="0 0 0 0 1 0 0 0 0 1 0 0 0 0 1 0 0 0 1 0"
         type="matrix"
         in="SourceGraphic" />
    </filter>
    <mask
       id="mask0-4">
      <g
         style="filter:url(#alpha-5)"
         id="g1090"
         filter="url(#alpha)">
        <rect
           id="rect1088"
           style="fill:rgb(0%,0%,0%);fill-opacity:0.2"
           y="0"
           x="0"
           height="384"
           width="384" />
      </g>
    </mask>
    <clipPath
       id="clip1-7">
      <rect
         id="rect1093"
         y="0"
         x="0"
         height="384"
         width="384" />
    </clipPath>
    <g
       clip-path="url(#clip1-7)"
       id="surface5-4">
      <path
         id="path1096"
         d="M 360 234 L 240 354 L 42 354 C 32.027344 354 24 345.972656 24 336 L 24 348 C 24 357.972656 32.027344 366 42 366 L 240 366 L 360 246 Z M 360 234"
         style="fill:rgb(0%,0%,0%)" />
    </g>
    <clipPath
       id="clip2-4">
      <path
         id="path1099"
         d="M 24 24 L 360 24 L 360 360 L 24 360 Z M 24 24" />
    </clipPath>
    <clipPath
       id="clip3-3">
      <path
         id="path1102"
         d="M 42 24 C 32.027344 24 24 32.027344 24 42 L 24 342 C 24 351.972656 32.027344 360 42 360 L 240 360 L 360 240 L 360 42 C 360 32.027344 351.972656 24 342 24 Z M 42 24" />
    </clipPath>
    <mask
       id="mask1-0">
      <g
         style="filter:url(#alpha-5)"
         id="g1107"
         filter="url(#alpha)">
        <rect
           id="rect1105"
           style="fill:rgb(0%,0%,0%);fill-opacity:0.2"
           y="0"
           x="0"
           height="384"
           width="384" />
      </g>
    </mask>
    <clipPath
       id="clip4-7">
      <rect
         id="rect1110"
         y="0"
         x="0"
         height="384"
         width="384" />
    </clipPath>
    <g
       clip-path="url(#clip4-7)"
       id="surface8-8">
      <path
         id="path1113"
         d="M 360 240 L 258 240 C 248.058594 240 240 248.058594 240 258 L 240 360 Z M 360 240"
         style="fill:rgb(0%,0%,0%)" />
    </g>
    <mask
       id="mask2-68">
      <g
         style="filter:url(#alpha-5)"
         id="g1118"
         filter="url(#alpha)">
        <rect
           id="rect1116"
           style="fill:rgb(0%,0%,0%);fill-opacity:0.101961"
           y="0"
           x="0"
           height="384"
           width="384" />
      </g>
    </mask>
    <clipPath
       id="clip5-8">
      <rect
         id="rect1121"
         y="0"
         x="0"
         height="384"
         width="384" />
    </clipPath>
    <g
       clip-path="url(#clip5-8)"
       id="surface11-4">
      <path
         id="path1124"
         d="M 258 240 C 248.0625 240 240 248.0625 240 258 L 240 264 C 240 254.0625 248.0625 246 258 246 L 354 246 L 360 240 Z M 258 240"
         style="fill:rgb(100%,100%,100%)" />
    </g>
    <mask
       id="mask3-3">
      <g
         style="filter:url(#alpha-5)"
         id="g1129"
         filter="url(#alpha)">
        <rect
           id="rect1127"
           style="fill:rgb(0%,0%,0%);fill-opacity:0.101961"
           y="0"
           x="0"
           height="384"
           width="384" />
      </g>
    </mask>
    <clipPath
       id="clip6-1">
      <rect
         id="rect1132"
         y="0"
         x="0"
         height="384"
         width="384" />
    </clipPath>
    <g
       clip-path="url(#clip6-1)"
       id="surface14-4">
      <path
         id="path1135"
         d="M 48 24 C 38.027344 24 24 38.027344 24 48 L 24 54 C 24 44.027344 38.027344 30 48 30 L 336 30 C 345.972656 30 360 44.027344 360 54 L 360 48 C 360 38.027344 345.972656 24 336 24 Z M 48 24"
         style="fill:rgb(100%,100%,100%)" />
    </g>
    <mask
       id="mask4-9">
      <g
         style="filter:url(#alpha-5)"
         id="g1140"
         filter="url(#alpha)">
        <rect
           id="rect1138"
           style="fill:rgb(0%,0%,0%);fill-opacity:0.501961"
           y="0"
           x="0"
           height="384"
           width="384" />
      </g>
    </mask>
    <clipPath
       id="clip7-2">
      <rect
         id="rect1143"
         y="0"
         x="0"
         height="384"
         width="384" />
    </clipPath>
    <g
       clip-path="url(#clip7-2)"
       id="surface17-0">
      <path
         id="path1146"
         d="M 120 108 L 120 96 L 264 96 L 264 108 Z M 120 108"
         style="fill:rgb(0%,0%,0%)" />
      <path
         id="path1148"
         d="M 120 144 L 120 132 L 264 132 L 264 144 Z M 120 144"
         style="fill:rgb(0%,0%,0%)" />
      <path
         id="path1150"
         d="M 120 180 L 120 168 L 264 168 L 264 180 Z M 120 180"
         style="fill:rgb(0%,0%,0%)" />
      <path
         id="path1152"
         d="M 120 216 L 120 204 L 216 204 L 216 216 Z M 120 216"
         style="fill:rgb(0%,0%,0%)" />
    </g>
  </defs>
  <sodipodi:namedview
     id="base"
     pagecolor="#ffffff"
     bordercolor="#666666"
     borderopacity="1.0"
     inkscape:pageopacity="0.0"
     inkscape:pageshadow="2"
     inkscape:zoom="0.98944637"
     inkscape:cx="-237.71179"
     inkscape:cy="170.1364"
     inkscape:document-units="px"
     inkscape:current-layer="g840"
     showgrid="false"
     inkscape:window-width="1920"
     inkscape:window-height="1025"
     inkscape:window-x="0"
     inkscape:window-y="27"
     inkscape:window-maximized="1"
     units="px" />
  <metadata
     id="metadata5">
    <rdf:RDF>
      <cc:Work
         rdf:about="">
        <dc:format>image/svg+xml</dc:format>
        <dc:type
           rdf:resource="http://purl.org/dc/dcmitype/StillImage" />
        <dc:title />
      </cc:Work>
    </rdf:RDF>
  </metadata>
  <g
     inkscape:label="Ebene 1"
     inkscape:groupmode="layer"
     id="layer1"
     transform="translate(0,-257.31248)">
    <g
       id="g829"
       transform="matrix(0.08957248,0,0,0.08957248,-80.58452,169.31962)">
      <g
         id="g840"
         transform="matrix(3.9384617,0,0,3.9384617,-250.59406,-62.154184)">
        <g
           id="g1023"
           transform="matrix(0.28508772,0,0,0.28508772,293.56911,265.86781)">
          <use
             id="use1005"
             xlink:href="#surface5-1"
             mask="url(#mask0-3)"
             x="0"
             y="0"
             width="100%"
             height="100%" />
          <path
             id="path1007"
             d="m 48,24 c 0,0 -24,0 -24,24 v 288 c 0,24 24,24 24,24 H 240 L 360,240 V 48 C 360,24 336,24 336,24 Z m 0,0"
             style="fill:#fdcc35"
             inkscape:connector-curvature="0" />
          <g
             id="g1013"
             clip-path="url(#clip2-0)">
            <g
               id="g1011"
               clip-path="url(#clip3-6)">
              <use
                 id="use1009"
                 xlink:href="#surface8-0"
                 mask="url(#mask1-3)"
                 x="0"
                 y="0"
                 width="100%"
                 height="100%" />
            </g>
          </g>
          <path
             id="path1015"
             d="M 360,240 H 258 c -9.9375,0 -18,8.0625 -18,18 v 102 z m 0,0"
             style="fill:#ffe699"
             inkscape:connector-curvature="0" />
          <use
             id="use1017"
             xlink:href="#surface11-1"
             mask="url(#mask2-6)"
             x="0"
             y="0"
             width="100%"
             height="100%" />
          <use
             id="use1019"
             xlink:href="#surface14-5"
             mask="url(#mask3-5)"
             x="0"
             y="0"
             width="100%"
             height="100%" />
          <use
             id="use1021"
             xlink:href="#surface17"
             mask="url(#mask4)"
             x="0"
             y="0"
             width="100%"
             height="100%" />
        </g>
      </g>
    </g>
  </g>
</svg>
