<svg height="48" width="48" xmlns="http://www.w3.org/2000/svg"><path d="m4.2612809 46.570494c-1.3498034-.364863-2.3805129-1.527621-2.6156107-2.95072-.0614635-.372414-.0793538-5.919968-.0638781-19.818701l.0215122-19.3015189.1731514-.4570031c.4271163-1.1272737 1.1971548-1.906192 2.2110717-2.2365584.3533048-.1151124 1.5769219-.1243868 13.9808226-.1060246l13.593646.020085.536027.264798c.623679.3080859 1.280263.9344429 1.58994 1.5167219.397416.7472756.443854 1.1078139.443854 3.4461164v2.145549h-1.920218-1.920218v-1.2739082-1.2738971h-12.404613-12.4046249v17.216962 17.21695h9.2868019 9.286791l.02942 1.486221c.03457 1.74654.158674 2.320544.757394 3.502586l.366937.724446-10.266903-.0055c-8.7186646-.004378-10.3294028-.021939-10.6813251-.117087zm14.1751131-1.471414c.851785-.406285.966019-1.660229.204454-2.24411-.274632-.210556-.844234-.316021-1.209316-.223925-.537092.135505-1.007573.875943-.917266 1.443603.144703.909616 1.097848 1.417612 1.922128 1.024432zm11.079615 1.447893c-1.04826-.339103-1.841095-1.125803-2.304123-2.286289l-.18483-.463237-.02283-14.167317c-.01668-10.315894.00079-14.293252.0641-14.630555.275444-1.466333 1.481884-2.699082 2.907474-2.970828.261857-.04994 2.781552-.07716 6.874054-.0743 7.203815.0055 7.011972-.0077 7.915486.53797.878049.530661 1.563334 1.570118 1.729285 2.623032.109208.692969.109208 27.796061 0 28.489041-.186201 1.181427-.979201 2.268519-2.031993 2.785581l-.537652.264062-6.989604.01602c-6.547013.01493-7.016814.0077-7.419377-.12307zm7.650457-1.079167c1.134232-.51794 1.177432-2.041577.07354-2.592015-.3573-.178157-.913962-.187574-1.231728-.02085-1.132618.594297-1.053616 2.19698.131817 2.674234.286497.115342.692595.0911 1.026418-.06135zm5.644795-16.146498v-12.275767h-6.02949-6.02949v12.275767 12.275767h6.02949 6.02949z" fill="#36c" stroke-width=".077007"/></svg>