<svg height="60" viewBox="0 0 60 60" width="60" xmlns="http://www.w3.org/2000/svg"><path d="m29.805085 3.6115806c14.727166 0 26.583333 11.8561664 26.583333 26.5833334s-11.856167 26.583333-26.583333 26.583333c-14.727167 0-26.5833339-11.856166-26.5833339-26.583333s11.8561669-26.5833334 26.5833339-26.5833334z" fill="none" stroke="#c00" stroke-linejoin="round" stroke-width="4.833"/><path d="m25.219597 58.371196c-6.087845-1.099381-11.308441-3.896019-15.6890732-8.404536-12.1874204-12.543211-10.38185732-32.944804 3.8423572-43.4159353 8.463505-6.23039426 20.345261-7.18745179 29.833661-2.4030564 3.059832 1.5428779 4.895316 2.8783515 7.443272 5.4156292 5.290449 5.2682745 8.101075 11.6524395 8.41488 19.1138855.365492 8.690382-2.631074 16.121044-8.945992 22.18362-5.480746 5.261733-12.286714 7.953022-19.96616 7.895232-1.60805-.0121-3.827876-.185278-4.932945-.384839zm9.398964-2.656986c10.41268-1.85565 18.3084-9.162295 21.001406-19.434549.756163-2.88433.916777-7.903454.34938-10.918094-1.258233-6.685134-4.643463-12.241973-9.84604-16.1622338-5.057975-3.8112968-10.825681-5.5858568-17.094928-5.2596259-13.997096.7283624-24.80804 12.0517797-24.80804 25.9840217 0 13.036101 9.335419 23.839126 22.372881 25.890089 1.388672.218456 6.603786.153727 8.025341-.09961z" fill="none" stroke-width=".254237"/><path d="m30.015652 66.483179c-.275-.275996-.499996-.621486-.499996-.767744 0-.146259.563392-.863789 1.251977-1.59451l1.251977-1.328587-.555931-1.228194c-1.26496-2.794596-.501705-5.985016 2.029677-8.484087l1.250067-1.234117-.738881-.844599c-1.110719-1.269626-.884314-2.332582.496806-2.332582.930267 0 13.26431 12.37541 13.26431 13.308789 0 1.389721-1.057664 1.618292-2.32415.50227l-.841546-.74157-1.229651 1.254612c-2.490038 2.540568-5.668918 3.306593-8.453411 2.037043l-1.223745-.557951-1.323785 1.25652c-.728082.691091-1.443017 1.256522-1.588745 1.256522-.145737 0-.489966-.22582-.764973-.501815zm16.999999-12.545366c-.381129-.714731-.02148-1.296755 2.208467-3.574437l1.902838-1.943539-1.487259-1.508406c-.818003-.829622-1.567406-1.479291-1.665335-1.443708-.09794.03558-1.133961.996189-2.302281 2.13468-1.16831 1.138492-2.251356 2.069986-2.406757 2.069986-.673134 0-1.249672-.551622-1.249672-1.195674 0-.513283.512338-1.192788 2.126445-2.8203l2.126446-2.144096-1.501441-1.49117c-1.528465-1.517997-1.875848-2.410746-1.201444-3.087593.48704-.488812 1.127799-.349374 2.024146.440479l.841546.741566 1.22965-1.254609c2.494144-2.544759 5.668069-3.306815 8.46421-2.032248l1.234551.562749 1.140444-1.109201c1.452297-1.412501 2.090495-1.623497 2.619199-.86593.217938.31228.396252.662326.396252.77788s-.563392.807962-1.251977 1.538686l-1.251978 1.328586.555932 1.228194c1.26496 2.794595.501705 5.985016-2.029677 8.484087l-1.250076 1.234117.738889.844598c.786999.899592.925934 1.54268.438884 2.031492-.674395.676848-1.563922.3282-3.076424-1.205804l-1.485779-1.506893-2.136348 2.134161c-2.279707 2.277379-3.19509 2.675686-3.751451 1.632347z" fill="#bfbfbf" stroke-width=".250453" transform="translate(-15.45835 -20.2435)"/></svg>