<svg height="60" viewBox="0 0 60 60" width="60" xmlns="http://www.w3.org/2000/svg"><path d="m30.29661 2.4576261c15.235 0 27.5 12.2649999 27.5 27.4999999s-12.265 27.5-27.5 27.5-27.5000001-12.265-27.5000001-27.5 12.2650001-27.4999999 27.5000001-27.4999999z" fill="none" stroke="#bababa" stroke-linejoin="round" stroke-width="3"/><path d="m32.347326 38.428761h-5.976562q-.02344-1.289063-.02344-1.570313 0-2.90625.960938-4.78125.960937-1.875 3.84375-4.21875 2.882812-2.34375 3.445312-3.070312.867188-1.148438.867188-2.53125 0-1.921875-1.546875-3.28125-1.523438-1.382813-4.125-1.382813-2.507813 0-4.195313 1.429688-1.6875 1.429687-2.320312 4.359375l-6.046875-.75q.257812-4.195313 3.5625-7.125 3.328125-2.929688 8.71875-2.929688 5.671875 0 9.023437 2.976563 3.351563 2.953125 3.351563 6.890625 0 2.179687-1.242188 4.125-1.21875 1.945312-5.25 5.296875-2.085937 1.734375-2.601562 2.789062-.492188 1.054688-.445313 3.773438zm-5.976562 8.859375v-6.585938h6.585937v6.585938z" fill="#bababa"/></svg>