<?xml version="1.0" encoding="UTF-8" standalone="no"?>
<svg
   xmlns:dc="http://purl.org/dc/elements/1.1/"
   xmlns:cc="http://creativecommons.org/ns#"
   xmlns:rdf="http://www.w3.org/1999/02/22-rdf-syntax-ns#"
   xmlns:svg="http://www.w3.org/2000/svg"
   xmlns="http://www.w3.org/2000/svg"
   xmlns:sodipodi="http://sodipodi.sourceforge.net/DTD/sodipodi-0.dtd"
   xmlns:inkscape="http://www.inkscape.org/namespaces/inkscape"
   height="60"
   viewBox="0 0 60 60"
   width="60"
   version="1.1"
   id="svg8"
   sodipodi:docname="remove_red.svg"
   inkscape:version="0.92.3 (2405546, 2018-03-11)">
  <metadata
     id="metadata14">
    <rdf:RDF>
      <cc:Work
         rdf:about="">
        <dc:format>image/svg+xml</dc:format>
        <dc:type
           rdf:resource="http://purl.org/dc/dcmitype/StillImage" />
        <dc:title></dc:title>
      </cc:Work>
    </rdf:RDF>
  </metadata>
  <defs
     id="defs12" />
  <sodipodi:namedview
     pagecolor="#ffffff"
     bordercolor="#666666"
     borderopacity="1"
     objecttolerance="10"
     gridtolerance="10"
     guidetolerance="10"
     inkscape:pageopacity="0"
     inkscape:pageshadow="2"
     inkscape:window-width="900"
     inkscape:window-height="664"
     id="namedview10"
     showgrid="false"
     inkscape:zoom="3.9333333"
     inkscape:cx="22.008973"
     inkscape:cy="21.137185"
     inkscape:window-x="594"
     inkscape:window-y="220"
     inkscape:window-maximized="0"
     inkscape:current-layer="svg8" />
  <path
     d="m29.805085 3.6115806c14.727166 0 26.583333 11.8561664 26.583333 26.5833334s-11.856167 26.583333-26.583333 26.583333c-14.727167 0-26.5833339-11.856166-26.5833339-26.583333s11.8561669-26.5833334 26.5833339-26.5833334z"
     fill="none"
     stroke="#c00"
     stroke-linejoin="round"
     stroke-width="4.833"
     id="path2" />
  <path
     d="m25.219597 58.371196c-6.087845-1.099381-11.308441-3.896019-15.6890732-8.404536-12.1874204-12.543211-10.38185732-32.944804 3.8423572-43.4159353 8.463505-6.23039426 20.345261-7.18745179 29.833661-2.4030564 3.059832 1.5428779 4.895316 2.8783515 7.443272 5.4156292 5.290449 5.2682745 8.101075 11.6524395 8.41488 19.1138855.365492 8.690382-2.631074 16.121044-8.945992 22.18362-5.480746 5.261733-12.286714 7.953022-19.96616 7.895232-1.60805-.0121-3.827876-.185278-4.932945-.384839zm9.398964-2.656986c10.41268-1.85565 18.3084-9.162295 21.001406-19.434549.756163-2.88433.916777-7.903454.34938-10.918094-1.258233-6.685134-4.643463-12.241973-9.84604-16.1622338-5.057975-3.8112968-10.825681-5.5858568-17.094928-5.2596259-13.997096.7283624-24.80804 12.0517797-24.80804 25.9840217 0 13.036101 9.335419 23.839126 22.372881 25.890089 1.388672.218456 6.603786.153727 8.025341-.09961z"
     fill="none"
     stroke-width=".254237"
     id="path4" />
  <text
     xml:space="preserve"
     style="font-style:normal;font-weight:normal;font-size:40px;line-height:1.25;font-family:sans-serif;letter-spacing:0px;word-spacing:0px;fill:#000000;fill-opacity:1;stroke:none"
     x="20.847458"
     y="24.40678"
     id="text823"><tspan
       sodipodi:role="line"
       id="tspan821"
       x="20.847458"
       y="59.797405" /></text>
  <rect
     style="fill:#bababa;fill-opacity:1;stroke:#bababa;stroke-opacity:1"
     id="rect825"
     width="28.983051"
     height="6.8644066"
     x="15.762712"
     y="25.932203" />
</svg>
