<svg height="60" viewBox="0 0 60 60" width="60" xmlns="http://www.w3.org/2000/svg"><path d="m29.805085 3.6115806c14.727166 0 26.583333 11.8561664 26.583333 26.5833334s-11.856167 26.583333-26.583333 26.583333c-14.727167 0-26.5833339-11.856166-26.5833339-26.583333s11.8561669-26.5833334 26.5833339-26.5833334z" fill="none" stroke="#c00" stroke-linejoin="round" stroke-width="4.833"/><path d="m25.219597 58.371196c-6.087845-1.099381-11.308441-3.896019-15.6890732-8.404536-12.1874204-12.543211-10.38185732-32.944804 3.8423572-43.4159353 8.463505-6.23039426 20.345261-7.18745179 29.833661-2.4030564 3.059832 1.5428779 4.895316 2.8783515 7.443272 5.4156292 5.290449 5.2682745 8.101075 11.6524395 8.41488 19.1138855.365492 8.690382-2.631074 16.121044-8.945992 22.18362-5.480746 5.261733-12.286714 7.953022-19.96616 7.895232-1.60805-.0121-3.827876-.185278-4.932945-.384839zm9.398964-2.656986c10.41268-1.85565 18.3084-9.162295 21.001406-19.434549.756163-2.88433.916777-7.903454.34938-10.918094-1.258233-6.685134-4.643463-12.241973-9.84604-16.1622338-5.057975-3.8112968-10.825681-5.5858568-17.094928-5.2596259-13.997096.7283624-24.80804 12.0517797-24.80804 25.9840217 0 13.036101 9.335419 23.839126 22.372881 25.890089 1.388672.218456 6.603786.153727 8.025341-.09961z" fill="none" stroke-width=".254237"/><text x="-43.347458" y="19.322035"><tspan x="-43.347458" y="36.136116"/></text><path d="m21.669667 46.143479c-.24101-.06536-.59619-.19945-.78928-.297978-.45035-.229803-1.24642-1.025362-1.47556-1.474615-.44001-.862682-.42743-.525089-.42743-11.458833 0-10.929991-.0124-10.596515.42622-11.456479.43291-.848756 1.45774-1.612824 2.4356-1.815872.30285-.06288 3.58157-.08364 10.74541-.06801l10.30958.02248.48018.193934c.9148.369465 1.711491 1.168325 2.083861 2.089516l.19077.471974v10.562458 10.562459l-.19389.480287c-.36937.914994-1.168061 1.711865-2.089051 2.084313l-.47187.190824-10.39317.01619c-8.7651.01365-10.4618-.0024-10.83137-.102648zm20.68847-2.733577c.15491-.104421.36708-.316634.47147-.471585l.18982-.281729v-9.744535-9.744534l-.18982-.281729c-.10439-.15495-.31656-.367164-.47147-.471585l-.28167-.189857h-9.74239-9.74237l-.28167.189857c-.15491.104421-.36709.316635-.47148.471585l-.18982.281729v9.744534 9.744535l.18982.281729c.10439.154951.31657.367164.47148.471585l.28167.189857h9.74237 9.74239zm-14.2815-3.819295c-.25413-.118471-.77701-.585529-1.61631-1.443768-2.14126-2.189578-2.20006-2.260099-2.31586-2.777649-.0895-.399862-.0835-.522541.0456-.932054.21098-.669463.92085-1.375592 1.57372-1.565429.8614-.250472 1.30312-.07158 2.33444.94546l.73115.721028 4.06891-4.066073c3.08953-3.08739 4.15932-4.106647 4.44455-4.234643.90983-.408269 1.90693-.03493 2.60081.973814.20097.292159.26763.492959.30078.905996.0775.965884.18283.840622-5.34022 6.351263-2.72211 2.715985-5.07746 5.002719-5.23412 5.081631-.45609.229731-1.14962.247325-1.59345.04042zm-11.74964 1.20821c-1.31088-.353066-2.33371-1.426327-2.60501-2.733435-.0629-.302909-.0836-3.582359-.068-10.74778l.0225-10.31186.19079-.471974c.37236-.921191 1.16906-1.720051 2.08385-2.089516l.48018-.193934h10.56012 10.56013l.48271.194879c1.31688.53166 2.18108 1.725604 2.29153 3.165904l.0464.605358h-9.93092c-10.82026 0-10.34541-.01974-11.17169.464345-.39152.229379-.94604.791337-1.18964 1.205609-.45347.771181-.4382.383619-.4382 11.120348v9.921071l-.43827-.0055c-.24105-.003-.63546-.05861-.87647-.12352z" fill="#bababa" stroke-width=".083488"/></svg>