<?xml version="1.0" encoding="UTF-8" standalone="no"?>
<!DOCTYPE svg PUBLIC "-//W3C//DTD SVG 1.1//EN" "http://www.w3.org/Graphics/SVG/1.1/DTD/svg11.dtd">
<svg xmlns="http://www.w3.org/2000/svg" version="1.1" viewBox="0 0 300 200">
<path fill="rgb(112,44,94)" fill-opacity="1.000" d="M 0.00 0.00 Q 147.03 0.00 294.06 0.00 Q 293.99 0.23 293.75 0.23 Q 148.25 0.68 1.15 0.50 A 0.40 0.40 -71.3 0 0 0.75 0.90 L 0.54 66.75 L 0.50 133.46 Q 0.29 133.76 0.00 133.94 Q 0.00 66.97 0.00 0.00 Z"/>
<path fill="rgb(229,20,59)" fill-opacity="1.000" d="M 294.06 0.00 Q 296.81 0.00 299.56 0.00 Q 299.49 33.37 299.46 66.75 L 0.54 66.75 L 0.75 0.90 A 0.40 0.40 -68.2 0 1 1.15 0.50 Q 148.25 0.68 293.75 0.23 Q 293.99 0.23 294.06 0.00 Z"/>
<path fill="rgb(112,44,94)" fill-opacity="1.000" d="M 299.56 0.00 Q 299.78 0.00 300.00 0.00 Q 300.00 100.00 300.00 200.00 Q 299.72 200.00 299.44 200.00 Q 299.75 199.38 299.75 198.25 Q 299.75 166.45 299.75 134.66 Q 299.75 134.59 299.56 133.89 L 299.46 133.50 Q 299.75 132.39 299.75 129.75 Q 299.75 99.75 299.75 69.75 Q 299.75 67.66 299.46 66.75 Q 299.49 33.37 299.56 0.00 Z"/>
<path fill="rgb(255,255,255)" fill-opacity="1.000" d="M 0.54 66.75 L 299.46 66.75 Q 299.75 67.66 299.75 69.75 Q 299.75 99.75 299.75 129.75 Q 299.75 132.39 299.46 133.50 Q 149.98 132.92 0.50 133.46 L 0.54 66.75 Z"/>
<path fill="rgb(37,71,161)" fill-opacity="1.000" d="M 299.46 133.50 L 299.56 133.89 Q 299.75 134.59 299.75 134.66 Q 299.75 166.45 299.75 198.25 Q 299.75 199.38 299.44 200.00 Q 299.06 200.00 298.69 200.00 Q 298.61 199.75 298.00 199.75 Q 150.00 199.75 2.00 199.75 Q 0.68 199.75 0.21 199.50 Q 0.47 166.97 0.00 134.44 Q 0.00 134.19 0.00 133.94 Q 0.29 133.76 0.50 133.46 Q 149.98 132.92 299.46 133.50 Z"/>
<path fill="rgb(112,44,94)" fill-opacity="1.000" d="M 0.00 134.44 Q 0.47 166.97 0.21 199.50 Q 0.10 199.47 0.00 199.44 Q 0.00 166.94 0.00 134.44 Z"/>
<path fill="rgb(37,71,161)" fill-opacity="1.000" d="M 0.00 199.44 Q 0.10 199.47 0.21 199.50 Q 0.68 199.75 2.00 199.75 Q 150.00 199.75 298.00 199.75 Q 298.61 199.75 298.69 200.00 Q 149.34 200.00 0.00 200.00 Q 0.00 199.72 0.00 199.44 Z"/>
</svg>