<?xml version="1.0" encoding="UTF-8" standalone="no"?>
<!-- Created with Inkscape (http://www.inkscape.org/) -->

<svg
   xmlns:dc="http://purl.org/dc/elements/1.1/"
   xmlns:cc="http://creativecommons.org/ns#"
   xmlns:rdf="http://www.w3.org/1999/02/22-rdf-syntax-ns#"
   xmlns:svg="http://www.w3.org/2000/svg"
   xmlns="http://www.w3.org/2000/svg"
   xmlns:xlink="http://www.w3.org/1999/xlink"
   xmlns:sodipodi="http://sodipodi.sourceforge.net/DTD/sodipodi-0.dtd"
   xmlns:inkscape="http://www.inkscape.org/namespaces/inkscape"
   width="200"
   height="80"
   viewBox="0 0 52.916665 21.166667"
   version="1.1"
   id="svg1839"
   inkscape:version="0.92.4 (5da689c313, 2019-01-14)"
   sodipodi:docname="geminirssreader.svg"
   inkscape:export-filename="/media/store/Dropbox/Dreambox/Look_n_Feel/GP4/Extension/cammanager.svg.png"
   inkscape:export-xdpi="96"
   inkscape:export-ydpi="96">
  <defs
     id="defs1833">
    <filter
       filterUnits="objectBoundingBox"
       y="0%"
       x="0%"
       height="100%"
       width="100%"
       id="alpha-1">
      <feColorMatrix
         id="feColorMatrix870"
         values="0 0 0 0 1 0 0 0 0 1 0 0 0 0 1 0 0 0 1 0"
         type="matrix"
         in="SourceGraphic" />
    </filter>
    <mask
       id="mask1-9">
      <g
         style="filter:url(#alpha-1)"
         id="g886"
         filter="url(#alpha)">
        <rect
           id="rect884"
           style="fill:rgb(0%,0%,0%);fill-opacity:0.2"
           y="0"
           x="0"
           height="384"
           width="384" />
      </g>
    </mask>
    <clipPath
       id="clip2">
      <rect
         id="rect889"
         y="0"
         x="0"
         height="384"
         width="384" />
    </clipPath>
    <g
       clip-path="url(#clip2)"
       id="surface8">
      <path
         id="path892"
         d="M 72 120.003906 C 72 132.675781 77.386719 138.003906 90 138.003906 C 179.46875 138.003906 251.996094 210.53125 251.996094 300 C 251.996094 311.195312 258.105469 318 269.996094 318 C 282.234375 318 287.996094 310.847656 287.996094 300 C 287.996094 190.648438 199.351562 102.003906 90 102.003906 C 78.03125 102.003906 72 107.828125 72 120.003906 Z M 72 192.003906 C 72 204.332031 77.042969 210.003906 90 210.003906 C 139.703125 210.003906 179.996094 250.296875 179.996094 300 C 179.996094 310.597656 186.082031 318 197.996094 318 C 209.625 318 215.996094 311.542969 215.996094 300 C 215.996094 230.414062 159.585938 174.003906 90 174.003906 C 78.375 174.003906 72 179.140625 72 192.003906 Z M 108 246 C 88.117188 246 72 262.117188 72 282 C 72 301.886719 88.117188 318 108 318 C 127.882812 318 144 301.886719 144 282 C 144 262.117188 127.882812 246 108 246 Z M 108 246"
         style="fill:rgb(0%,0%,0%)" />
    </g>
    <filter
       height="1.0864"
       y="-0.0432"
       width="1.0332308"
       x="-0.016615385"
       id="filter922"
       style="color-interpolation-filters:sRGB"
       inkscape:collect="always">
      <feGaussianBlur
         id="feGaussianBlur924"
         stdDeviation="0.3571875"
         inkscape:collect="always" />
    </filter>
  </defs>
  <sodipodi:namedview
     id="base"
     pagecolor="#ffffff"
     bordercolor="#666666"
     borderopacity="1.0"
     inkscape:pageopacity="0"
     inkscape:pageshadow="2"
     inkscape:zoom="2.8103589"
     inkscape:cx="-5.6992164"
     inkscape:cy="61.815366"
     inkscape:document-units="px"
     inkscape:current-layer="layer1"
     showgrid="false"
     units="px"
     inkscape:window-width="1920"
     inkscape:window-height="1052"
     inkscape:window-x="0"
     inkscape:window-y="0"
     inkscape:window-maximized="1"
     inkscape:snap-global="false"
     showguides="true"
     inkscape:guide-bbox="true" />
  <metadata
     id="metadata1836">
    <rdf:RDF>
      <cc:Work
         rdf:about="">
        <dc:format>image/svg+xml</dc:format>
        <dc:type
           rdf:resource="http://purl.org/dc/dcmitype/StillImage" />
        <dc:title />
      </cc:Work>
    </rdf:RDF>
  </metadata>
  <g
     inkscape:label="Ebene 1"
     inkscape:groupmode="layer"
     id="layer1"
     transform="translate(0,-275.83332)">
    <rect
       style="opacity:1;fill:#f59133;fill-opacity:1;stroke:none;stroke-width:1.74052;stroke-miterlimit:4;stroke-dasharray:none;stroke-opacity:1;paint-order:markers fill stroke"
       id="rect955"
       width="51.166698"
       height="19.843752"
       x="1.0885096"
       y="276.49478"
       rx="1.9423864"
       ry="2.0355067" />
    <g
       id="g918"
       transform="matrix(0.09726974,0,0,0.09726974,51.307503,249.42558)">
      <g
         id="g959"
         transform="matrix(0.65378439,0,0,0.65378439,-373.14651,244.95911)">
        <use
           height="100%"
           width="100%"
           y="0"
           x="0"
           mask="url(#mask1-9)"
           xlink:href="#surface8"
           id="use912" />
        <path
           inkscape:connector-curvature="0"
           style="fill:#ffffff"
           d="m 72,114.00391 c 0,12.67187 5.386719,18 18,18 89.46875,0 161.99609,72.52734 161.99609,161.99609 0,11.19531 6.10938,18 18,18 12.23828,0 18,-7.15234 18,-18 C 287.99609,184.64844 199.35156,96.003906 90,96.003906 c -11.96875,0 -18,5.824224 -18,18.000004 z m 0,72 c 0,12.32812 5.042969,18 18,18 49.70312,0 89.99609,40.29296 89.99609,89.99609 0,10.59766 6.08594,18 18,18 11.62891,0 18,-6.45703 18,-18 0,-69.58594 -56.41015,-125.99609 -125.99609,-125.99609 -11.625,0 -18,5.13671 -18,18 z M 108,240 c -19.882812,0 -36,16.11719 -36,36 0,19.88672 16.117188,36 36,36 19.88281,0 36,-16.11328 36,-36 0,-19.88281 -16.11719,-36 -36,-36 z m 0,0"
           id="path914" />
      </g>
    </g>
    <g
       aria-label="G "
       style="font-style:normal;font-variant:normal;font-weight:normal;font-stretch:normal;font-size:7.39383507px;line-height:1.25;font-family:'Concielian Alpha';-inkscape-font-specification:'Concielian Alpha';letter-spacing:0px;word-spacing:0px;fill:#ffffff;fill-opacity:1;stroke:none;stroke-width:0.18484586"
       id="text6295" />
    <g
       id="g862"
       transform="translate(-1.8846513e-7,-3.2441405e-6)">
      <rect
         ry="1.2952173"
         rx="1.311837"
         y="276.49478"
         x="0.66145831"
         height="19.84375"
         width="51.59375"
         id="rect5504"
         style="opacity:1;fill:none;fill-opacity:1;stroke:#13243c;stroke-width:1.32291663;stroke-miterlimit:4;stroke-dasharray:none;stroke-opacity:1" />
      <g
         transform="translate(1.8659043e-7,2.7664328e-6)"
         id="layer1-3"
         inkscape:label="Ebene 1">
        <g
           id="text6295-5"
           style="font-style:normal;font-variant:normal;font-weight:normal;font-stretch:normal;font-size:7.39383507px;line-height:1.25;font-family:'Concielian Alpha';-inkscape-font-specification:'Concielian Alpha';letter-spacing:0px;word-spacing:0px;fill:#ffffff;fill-opacity:1;stroke:none;stroke-width:0.18484586"
           aria-label="G " />
        <g
           id="g862-6">
          <rect
             transform="matrix(0.9926512,0,0,0.9814432,0.31020407,-16.661441)"
             ry="1.2952173"
             rx="1.311837"
             y="298.88672"
             x="0.54483372"
             height="19.84375"
             width="51.59375"
             id="rect882"
             style="opacity:1;fill:none;fill-opacity:0.41568627;stroke:#13243c;stroke-width:1.32291663;stroke-miterlimit:4;stroke-dasharray:none;stroke-opacity:0.57480319;filter:url(#filter922)" />
        </g>
      </g>
    </g>
  </g>
</svg>
