<?xml version="1.0" encoding="UTF-8" standalone="no"?>
<!-- Created with Inkscape (http://www.inkscape.org/) -->

<svg
   xmlns:dc="http://purl.org/dc/elements/1.1/"
   xmlns:cc="http://creativecommons.org/ns#"
   xmlns:rdf="http://www.w3.org/1999/02/22-rdf-syntax-ns#"
   xmlns:svg="http://www.w3.org/2000/svg"
   xmlns="http://www.w3.org/2000/svg"
   xmlns:xlink="http://www.w3.org/1999/xlink"
   xmlns:sodipodi="http://sodipodi.sourceforge.net/DTD/sodipodi-0.dtd"
   xmlns:inkscape="http://www.inkscape.org/namespaces/inkscape"
   width="150"
   height="150"
   viewBox="0 0 39.687499 39.687501"
   version="1.1"
   id="svg8"
   inkscape:version="0.92.2 (5c3e80d, 2017-08-06)"
   sodipodi:docname="geminirssreader.rss_atom.svg">
  <defs
     id="defs2">
    <filter
       filterUnits="objectBoundingBox"
       y="0%"
       x="0%"
       height="100%"
       width="100%"
       id="alpha-0">
      <feColorMatrix
         id="feColorMatrix827"
         values="0 0 0 0 1 0 0 0 0 1 0 0 0 0 1 0 0 0 1 0"
         type="matrix"
         in="SourceGraphic" />
    </filter>
    <mask
       id="mask0-6">
      <g
         style="filter:url(#alpha-0)"
         id="g832"
         filter="url(#alpha)">
        <rect
           id="rect830"
           style="fill:rgb(0%,0%,0%);fill-opacity:0.2"
           y="0"
           x="0"
           height="384"
           width="384" />
      </g>
    </mask>
    <clipPath
       id="clip1-1">
      <rect
         id="rect835"
         y="0"
         x="0"
         height="384"
         width="384" />
    </clipPath>
    <g
       clip-path="url(#clip1-1)"
       id="surface5-5">
      <path
         id="path838"
         d="M 36 295.199219 L 36 307.199219 C 36 330.601562 59.40625 354 82.804688 354 L 301.199219 354 C 324.601562 354 348 330.601562 348 307.199219 C 348 303.792969 347.867188 300.445312 347.761719 297.097656 C 346.546875 319.835938 323.964844 342 301.199219 342 L 82.804688 342 C 59.410156 342 36.003906 318.601562 36.003906 295.199219 Z M 36 295.199219"
         style="fill:rgb(0%,0%,0%)" />
    </g>
    <mask
       id="mask1">
      <g
         style="filter:url(#alpha-0)"
         id="g843"
         filter="url(#alpha)">
        <rect
           id="rect841"
           style="fill:rgb(0%,0%,0%);fill-opacity:0.2"
           y="0"
           x="0"
           height="384"
           width="384" />
      </g>
    </mask>
    <clipPath
       id="clip2">
      <rect
         id="rect846"
         y="0"
         x="0"
         height="384"
         width="384" />
    </clipPath>
    <g
       clip-path="url(#clip2)"
       id="surface8">
      <path
         id="path849"
         d="M 72 120.003906 C 72 132.675781 77.386719 138.003906 90 138.003906 C 179.46875 138.003906 251.996094 210.53125 251.996094 300 C 251.996094 311.195312 258.105469 318 269.996094 318 C 282.234375 318 287.996094 310.847656 287.996094 300 C 287.996094 190.648438 199.351562 102.003906 90 102.003906 C 78.03125 102.003906 72 107.828125 72 120.003906 Z M 72 192.003906 C 72 204.332031 77.042969 210.003906 90 210.003906 C 139.703125 210.003906 179.996094 250.296875 179.996094 300 C 179.996094 310.597656 186.082031 318 197.996094 318 C 209.625 318 215.996094 311.542969 215.996094 300 C 215.996094 230.414062 159.585938 174.003906 90 174.003906 C 78.375 174.003906 72 179.140625 72 192.003906 Z M 108 246 C 88.117188 246 72 262.117188 72 282 C 72 301.886719 88.117188 318 108 318 C 127.882812 318 144 301.886719 144 282 C 144 262.117188 127.882812 246 108 246 Z M 108 246"
         style="fill:rgb(0%,0%,0%)" />
    </g>
    <mask
       id="mask2">
      <g
         style="filter:url(#alpha-0)"
         id="g854"
         filter="url(#alpha)">
        <rect
           id="rect852"
           style="fill:rgb(0%,0%,0%);fill-opacity:0.101961"
           y="0"
           x="0"
           height="384"
           width="384" />
      </g>
    </mask>
    <clipPath
       id="clip3">
      <rect
         id="rect857"
         y="0"
         x="0"
         height="384"
         width="384" />
    </clipPath>
    <g
       clip-path="url(#clip3)"
       id="surface11">
      <path
         id="path860"
         d="M 82.804688 36 C 59.40625 36 36 59.40625 36 82.804688 L 36 88.804688 C 36 65.40625 59.40625 42 82.804688 42 C 237.085938 42 345.515625 148.839844 347.882812 302.097656 C 347.933594 301.796875 348 301.496094 348 301.195312 C 348 145.199219 238.800781 36 82.804688 36 Z M 82.804688 36"
         style="fill:rgb(100%,100%,100%)" />
    </g>
  </defs>
  <sodipodi:namedview
     id="base"
     pagecolor="#ffffff"
     bordercolor="#666666"
     borderopacity="1.0"
     inkscape:pageopacity="0.0"
     inkscape:pageshadow="2"
     inkscape:zoom="0.98944637"
     inkscape:cx="-289.65931"
     inkscape:cy="170.1364"
     inkscape:document-units="px"
     inkscape:current-layer="g840"
     showgrid="false"
     inkscape:window-width="1920"
     inkscape:window-height="1025"
     inkscape:window-x="0"
     inkscape:window-y="27"
     inkscape:window-maximized="1"
     units="px" />
  <metadata
     id="metadata5">
    <rdf:RDF>
      <cc:Work
         rdf:about="">
        <dc:format>image/svg+xml</dc:format>
        <dc:type
           rdf:resource="http://purl.org/dc/dcmitype/StillImage" />
        <dc:title />
      </cc:Work>
    </rdf:RDF>
  </metadata>
  <g
     inkscape:label="Ebene 1"
     inkscape:groupmode="layer"
     id="layer1"
     transform="translate(0,-257.31248)">
    <g
       id="g829"
       transform="matrix(0.08957248,0,0,0.08957248,-80.58452,169.31962)">
      <g
         id="g840"
         transform="matrix(3.9384617,0,0,3.9384617,-250.59406,-62.154184)">
        <g
           id="g875"
           transform="matrix(0.3125,0,0,0.3125,288.30595,260.52241)">
          <use
             id="use865"
             xlink:href="#surface5-5"
             mask="url(#mask0-6)"
             x="0"
             y="0"
             width="100%"
             height="100%" />
          <path
             id="path867"
             d="M 347.99609,301.19922 C 347.99609,145.20312 238.79687,36.003906 82.800781,36.003906 59.398438,36.003906 36,59.40625 36,82.804688 V 301.19922 C 36,324.60156 59.398438,348 82.800781,348 H 301.19531 c 23.39844,0 46.80078,-23.39844 46.80078,-46.80078 z m 0,0"
             style="fill:#f59133"
             inkscape:connector-curvature="0" />
          <use
             id="use869"
             xlink:href="#surface8"
             mask="url(#mask1)"
             x="0"
             y="0"
             width="100%"
             height="100%" />
          <path
             id="path871"
             d="m 72,114.00391 c 0,12.67187 5.386719,18 18,18 89.46875,0 161.99609,72.52734 161.99609,161.99609 0,11.19531 6.10938,18 18,18 12.23828,0 18,-7.15234 18,-18 C 287.99609,184.64844 199.35156,96.003906 90,96.003906 c -11.96875,0 -18,5.824224 -18,18.000004 z m 0,72 c 0,12.32812 5.042969,18 18,18 49.70312,0 89.99609,40.29296 89.99609,89.99609 0,10.59766 6.08594,18 18,18 11.62891,0 18,-6.45703 18,-18 0,-69.58594 -56.41015,-125.99609 -125.99609,-125.99609 -11.625,0 -18,5.13671 -18,18 z M 108,240 c -19.882812,0 -36,16.11719 -36,36 0,19.88672 16.117188,36 36,36 19.88281,0 36,-16.11328 36,-36 0,-19.88281 -16.11719,-36 -36,-36 z m 0,0"
             style="fill:#ffffff"
             inkscape:connector-curvature="0" />
          <use
             id="use873"
             xlink:href="#surface11"
             mask="url(#mask2)"
             x="0"
             y="0"
             width="100%"
             height="100%" />
        </g>
      </g>
    </g>
  </g>
</svg>
